<?xml version="1.0" encoding="UTF-8"?><!DOCTYPE svg PUBLIC "-//W3C//DTD SVG 1.1//EN" "http://www.w3.org/Graphics/SVG/1.1/DTD/svg11.dtd"><svg xmlns="http://www.w3.org/2000/svg" xmlns:xlink="http://www.w3.org/1999/xlink"><defs/><symbol id="Arrow" viewBox="0 0 24 24">
<path fill-rule="evenodd" clip-rule="evenodd" d="M11.4697 5.46967C11.7626 5.17678 12.2374 5.17678 12.5303 5.46967L18.5303 11.4697C18.8232 11.7626 18.8232 12.2374 18.5303 12.5303L12.5303 18.5303C12.2374 18.8232 11.7626 18.8232 11.4697 18.5303C11.1768 18.2374 11.1768 17.7626 11.4697 17.4697L16.1893 12.75H6C5.58579 12.75 5.25 12.4142 5.25 12C5.25 11.5858 5.58579 11.25 6 11.25H16.1893L11.4697 6.53033C11.1768 6.23744 11.1768 5.76256 11.4697 5.46967Z"/>
</symbol><symbol id="Call" viewBox="0 0 24 24">
<path fill-rule="evenodd" clip-rule="evenodd" d="M6.5325 3.61307C6.21421 3.83674 5.73913 4.23444 5.16024 4.91438C4.48981 5.70184 4.08498 6.63876 4.10421 7.58059C4.14871 9.76028 5.15893 12.8115 8.17459 15.8272C11.2612 18.9138 14.3229 19.9083 16.4923 19.9154C17.3875 19.9183 18.2749 19.529 19.0295 18.8935C19.7348 18.2994 20.15 17.8033 20.3836 17.471C20.3777 17.4582 20.3641 17.4364 20.3347 17.4129L17.0179 14.7594C16.9184 14.6798 16.775 14.6878 16.685 14.7779L16.052 15.4108C15.1895 16.2733 13.803 16.5045 12.7311 15.7711C10.8957 14.5154 9.42306 13.0092 8.22991 11.2697C7.49172 10.1934 7.72445 8.79816 8.59617 7.93396L9.22085 7.31467C9.31161 7.2247 9.3199 7.08075 9.24006 6.98096L6.57993 3.6558C6.56428 3.63624 6.54884 3.6234 6.53671 3.61564C6.53523 3.6147 6.53383 3.61384 6.5325 3.61307ZM4.01811 3.94199C4.68646 3.15697 5.264 2.66771 5.6962 2.36754C6.43833 1.85211 7.30361 2.15923 7.75124 2.71876L10.4114 6.04391C10.9702 6.74248 10.9122 7.75008 10.2769 8.37992L9.65223 8.9992C9.23923 9.40864 9.18185 10.0056 9.4669 10.4212C10.5592 12.0137 11.9013 13.3859 13.5781 14.5331C13.9903 14.8151 14.5824 14.7591 14.9913 14.3501L15.6243 13.7172C16.2548 13.0867 17.2586 13.0311 17.9549 13.5881L21.2718 16.2416C21.8409 16.6969 22.1415 17.5735 21.622 18.3176C21.3114 18.7624 20.8047 19.3594 19.9958 20.0407C19.0433 20.8429 17.8239 21.4198 16.4874 21.4154C13.8678 21.4068 10.4399 20.2138 7.11393 16.8879C3.85533 13.6293 2.65777 10.2196 2.60452 7.61121C2.57603 6.21564 3.17298 4.93464 4.01811 3.94199Z" fill="#000B26" fill-opacity="0.32"/>
</symbol><symbol id="Cross" viewBox="0 0 18 18">
<path fill-rule="evenodd" clip-rule="evenodd" d="M17.7071 1.70711C18.0976 1.31658 18.0976 0.683417 17.7071 0.292893C17.3166 -0.0976311 16.6834 -0.097631 16.2929 0.292893L9 7.58579L1.70711 0.292893C1.31658 -0.097631 0.683417 -0.097631 0.292893 0.292893C-0.0976311 0.683417 -0.0976311 1.31658 0.292893 1.70711L7.58579 9L0.292894 16.2929C-0.0976301 16.6834 -0.0976301 17.3166 0.292894 17.7071C0.683419 18.0976 1.31658 18.0976 1.70711 17.7071L9 10.4142L16.2929 17.7071C16.6834 18.0976 17.3166 18.0976 17.7071 17.7071C18.0976 17.3166 18.0976 16.6834 17.7071 16.2929L10.4142 9L17.7071 1.70711Z" fill="#000B26" fill-opacity="0.72"/>
</symbol><symbol id="Flag" viewBox="0 0 12 9">
<path fill-rule="evenodd" clip-rule="evenodd" d="M11.7574 0.197712C12.0624 0.477952 12.0825 0.9524 11.8023 1.25742L4.91167 8.75742C4.77168 8.90979 4.57497 8.99755 4.36808 8.99995C4.16119 9.00235 3.96249 8.91918 3.81901 8.77011L0.209636 5.02011C-0.0776084 4.72167 -0.068536 4.24688 0.229899 3.95964C0.528335 3.67239 1.00312 3.68147 1.29037 3.9799L4.34667 7.15528L10.6977 0.242586C10.9779 -0.0624367 11.4524 -0.0825274 11.7574 0.197712Z" fill="white"/>
</symbol><symbol id="leftArrow" viewBox="0 0 8 14">
<path fill-rule="evenodd" clip-rule="evenodd" d="M7.53033 13.5303C7.23744 13.8232 6.76256 13.8232 6.46967 13.5303L0.46967 7.53033C0.176777 7.23744 0.176777 6.76256 0.46967 6.46967L6.46967 0.469669C6.76256 0.176776 7.23744 0.176776 7.53033 0.469669C7.82322 0.762563 7.82322 1.23744 7.53033 1.53033L2.06066 7L7.53033 12.4697C7.82322 12.7626 7.82322 13.2374 7.53033 13.5303Z" fill="#000B26" fill-opacity="0.72"/>
</symbol><symbol id="Mail" viewBox="0 0 24 24">
<path fill-rule="evenodd" clip-rule="evenodd" d="M5 5.5H19C19.6497 5.5 20.203 5.91311 20.4114 6.49099L13.2481 11.2666C12.4923 11.7704 11.5077 11.7704 10.7519 11.2666L3.58857 6.49099C3.79701 5.91311 4.35026 5.5 5 5.5ZM3.5 8.23472V17C3.5 17.8284 4.17157 18.5 5 18.5H19C19.8284 18.5 20.5 17.8284 20.5 17V8.23472L14.0801 12.5146C12.8205 13.3544 11.1795 13.3544 9.91987 12.5146L3.5 8.23472ZM2 7C2 5.34315 3.34315 4 5 4H19C20.6569 4 22 5.34315 22 7V17C22 18.6569 20.6569 20 19 20H5C3.34315 20 2 18.6569 2 17V7Z" fill="#000B26" fill-opacity="0.32"/>
</symbol><symbol id="Pin" viewBox="0 0 24 24">
<path fill-rule="evenodd" clip-rule="evenodd" d="M12 12C13.1046 12 14 11.1046 14 10C14 8.89543 13.1046 8 12 8C10.8954 8 10 8.89543 10 10C10 11.1046 10.8954 12 12 12ZM12 13.5C13.933 13.5 15.5 11.933 15.5 10C15.5 8.067 13.933 6.5 12 6.5C10.067 6.5 8.5 8.067 8.5 10C8.5 11.933 10.067 13.5 12 13.5Z" fill="#000B26" fill-opacity="0.72"/>
<path fill-rule="evenodd" clip-rule="evenodd" d="M16.1185 16.1287C17.4819 14.3107 18.5 12.159 18.5 9.80488C18.5 6.35749 15.625 3.5 12 3.5C8.37502 3.5 5.5 6.35749 5.5 9.80488C5.5 12.159 6.51813 14.3107 7.88146 16.1287C9.24149 17.9424 10.8671 19.3181 11.8832 20.0846C11.9274 20.118 11.9675 20.1275 12 20.1275C12.0325 20.1275 12.0726 20.118 12.1168 20.0846C13.1329 19.3181 14.7585 17.9424 16.1185 16.1287ZM13.0201 21.2821C15.1763 19.6555 20 15.392 20 9.80488C20 5.49436 16.4183 2 12 2C7.58172 2 4 5.49436 4 9.80488C4 15.392 8.82374 19.6555 10.9799 21.2821C11.5904 21.7427 12.4096 21.7427 13.0201 21.2821Z" fill="#000B26" fill-opacity="0.72"/>
</symbol><symbol id="rightArrow" viewBox="0 0 8 14">
<path fill-rule="evenodd" clip-rule="evenodd" d="M0.46967 0.46967C0.762563 0.176777 1.23744 0.176777 1.53033 0.46967L7.53033 6.46967C7.82322 6.76256 7.82322 7.23744 7.53033 7.53033L1.53033 13.5303C1.23744 13.8232 0.762563 13.8232 0.46967 13.5303C0.176777 13.2374 0.176777 12.7626 0.46967 12.4697L5.93934 7L0.46967 1.53033C0.176777 1.23744 0.176777 0.762563 0.46967 0.46967Z" fill="#000B26" fill-opacity="0.72"/>
</symbol></svg>