<svg width="24" height="24" viewBox="0 0 24 24" fill="none" xmlns="http://www.w3.org/2000/svg">
<path fill-rule="evenodd" clip-rule="evenodd" d="M5 5.5H19C19.6497 5.5 20.203 5.91311 20.4114 6.49099L13.2481 11.2666C12.4923 11.7704 11.5077 11.7704 10.7519 11.2666L3.58857 6.49099C3.79701 5.91311 4.35026 5.5 5 5.5ZM3.5 8.23472V17C3.5 17.8284 4.17157 18.5 5 18.5H19C19.8284 18.5 20.5 17.8284 20.5 17V8.23472L14.0801 12.5146C12.8205 13.3544 11.1795 13.3544 9.91987 12.5146L3.5 8.23472ZM2 7C2 5.34315 3.34315 4 5 4H19C20.6569 4 22 5.34315 22 7V17C22 18.6569 20.6569 20 19 20H5C3.34315 20 2 18.6569 2 17V7Z" fill="#000B26" fill-opacity="0.32"/>
</svg>
