<svg width="237" height="257" viewBox="0 0 237 257" fill="none" xmlns="http://www.w3.org/2000/svg">
<path d="M30.5793 220.766C35.7943 226.236 40.7293 229.764 44.6283 232.551C90.4587 265.311 144.688 255.763 156.208 253.431C173.227 249.987 206.125 243.33 229.91 215.464C265.9 173.304 260.3 106.88 232.385 63.0376C227.279 55.017 200.31 10.504 145.5 3.36535C112.32 -0.955046 73.6545 7.75996 45.6517 31.14C-13.1287 80.196 -8.94406 179.313 30.5793 220.766Z" fill="#EFEFF4"/>
<path d="M173.406 133.745C173.406 133.745 164.876 108.174 174.62 97.64C184.364 87.1064 205.602 75.8476 195.079 38.5992C188.919 16.7928 186.539 7.15939 185.635 2.92159C185.553 2.53631 185.383 2.17527 185.138 1.86677C184.893 1.55828 184.58 1.31072 184.223 1.1435C183.866 0.976282 183.476 0.893946 183.082 0.902949C182.688 0.911952 182.302 1.01205 181.953 1.19539C171.366 6.76599 137.541 26.6978 137.545 53.9656C137.55 86.2902 173.406 133.745 173.406 133.745Z" fill="#5FE0BB"/>
<path opacity="0.5" d="M176.332 14.1034C173.781 18.2726 171.659 22.6294 169.671 27.0646L168.937 28.732L168.237 30.412C167.769 31.532 167.305 32.652 166.878 33.793C165.987 36.054 165.198 38.3528 164.397 40.653C163.653 42.9686 162.889 45.273 162.256 47.6278C161.565 49.9616 160.986 52.3248 160.404 54.6894C159.346 59.4494 158.338 64.1926 157.786 69.0828C157.646 70.305 157.506 71.5272 157.38 72.7508L157.211 76.4342L157.127 78.2766L157.152 80.1176L157.226 83.7996L157.506 87.469L157.646 89.3016L157.88 91.1216C158.041 92.3354 158.182 93.5534 158.375 94.7616L159.035 98.3722C160.953 107.975 163.992 117.29 168.49 126.035C168.614 126.28 168.829 126.467 169.089 126.556C169.348 126.645 169.633 126.628 169.881 126.51C170.129 126.392 170.321 126.182 170.416 125.925C170.511 125.667 170.501 125.382 170.389 125.132L170.361 125.072C168.445 120.715 166.814 116.239 165.478 111.672C164.126 107.107 163.028 102.471 162.188 97.7842L161.614 94.2674C161.454 93.0914 161.334 91.9098 161.182 90.7338L160.97 88.967L160.848 87.1918L160.62 83.64L160.572 80.0896L160.543 78.3144L160.621 76.542L160.768 73C160.88 71.8254 161.024 70.6522 161.15 69.479C161.357 67.134 161.81 64.7736 162.168 62.4174C162.34 61.2372 162.61 60.0724 162.827 58.8978C163.068 57.7288 163.257 56.5486 163.541 55.3894C164.53 50.7148 165.76 46.0934 167.086 41.4958C167.786 39.211 168.486 36.9192 169.272 34.6582C169.638 33.5172 170.042 32.3902 170.448 31.2632L171.054 29.572L171.696 27.892C173.392 23.412 175.259 18.9726 177.366 14.6928L177.378 14.6718C177.443 14.5341 177.454 14.3764 177.407 14.2311C177.361 14.0858 177.26 13.9638 177.126 13.8903C176.993 13.8167 176.836 13.7971 176.688 13.8354C176.54 13.8737 176.413 13.9671 176.332 14.0964V14.1034Z" fill="white"/>
<path d="M141.268 225.607C138.683 227.084 164.375 190.201 169.621 134.502C172.093 108.255 170.08 75.6936 184.085 62.2074C195.742 50.9822 238.082 54.9134 251.959 56.5486C252.348 56.5938 252.715 56.7488 253.019 56.9955C253.323 57.2421 253.55 57.5702 253.675 57.9413C253.799 58.3124 253.815 58.7112 253.721 59.0911C253.627 59.471 253.426 59.8162 253.143 60.0864C246.916 66.028 233.672 79.9524 230.84 93.3168C227.106 110.94 211.348 122.988 196.804 126.9C182.261 130.812 174.249 134.226 168.568 158.243C162.887 182.26 148.612 221.41 141.268 225.607Z" fill="#F1F1F1"/>
<path opacity="0.5" d="M233.14 65.1263C224.281 66.1058 215.708 68.8486 207.926 73.1932C204.008 75.3637 200.385 78.0282 197.146 81.1214C193.926 84.2406 191.095 87.8022 188.925 91.7474L188.119 93.2286C187.854 93.7256 187.634 94.2436 187.391 94.7504C187.147 95.2572 186.908 95.7738 186.691 96.2806L186.051 97.8052C185.196 99.8333 184.353 101.868 183.523 103.911C181.866 107.993 180.276 112.1 178.751 116.231C175.695 124.491 172.904 132.858 170.631 141.391C170.606 141.496 170.621 141.606 170.675 141.7C170.728 141.793 170.816 141.863 170.919 141.894C171.022 141.925 171.133 141.915 171.229 141.866C171.325 141.817 171.399 141.734 171.435 141.632V141.62C172.814 137.463 174.269 133.313 175.804 129.202C177.318 125.081 178.879 120.978 180.486 116.893L182.914 110.773L185.408 104.679C186.237 102.648 187.084 100.623 187.948 98.6046L188.591 97.0898C188.803 96.583 189.04 96.1098 189.264 95.6198C189.488 95.1298 189.699 94.6398 189.95 94.1624L190.72 92.747C192.761 88.967 195.47 85.5706 198.501 82.5158C200.041 81.0008 201.678 79.588 203.401 78.2864L204.042 77.7936L204.703 77.3232C205.146 77.0124 205.58 76.689 206.029 76.388C206.935 75.7958 207.835 75.1924 208.774 74.6492C212.487 72.4092 216.474 70.6172 220.569 69.1276C224.669 67.6261 228.901 66.5115 233.209 65.7983H233.23C233.315 65.7824 233.39 65.7344 233.441 65.6642C233.492 65.5939 233.513 65.5069 233.502 65.4211C233.49 65.3353 233.446 65.2573 233.378 65.2032C233.311 65.1491 233.225 65.1231 233.139 65.1305L233.14 65.1263Z" fill="white"/>
<path d="M109.537 61.1658C110.177 61.1654 110.791 60.916 111.251 60.4706C111.71 60.0251 111.978 59.4184 111.998 58.7788C112.013 58.286 112.331 46.5456 108.82 34.0254C104.026 16.9314 94.3579 6.79116 80.8605 4.70236C74.0761 3.65096 68.0337 5.26236 62.9055 9.48756C46.9077 22.6728 45.3999 57.1464 45.3383 58.608C45.3227 59.2551 45.5624 59.8823 46.0055 60.3542C46.4486 60.826 47.0596 61.1046 47.7064 61.1296C48.3532 61.1546 48.9839 60.9241 49.4621 60.4879C49.9403 60.0516 50.2277 59.4448 50.2621 58.7984C50.2747 58.4624 51.7461 25.0584 66.0443 13.2858C70.0959 9.94816 74.6949 8.73296 80.1073 9.57156C108.134 13.9116 107.087 58.1796 107.073 58.6262C107.052 59.2784 107.291 59.912 107.738 60.3881C108.184 60.8642 108.801 61.1439 109.453 61.1658H109.537Z" fill="#7B818D"/>
<path d="M172.81 205.744L143.489 47.9904L55.6087 46.54L27.2825 215.402H159.273C163.967 215.4 173.5 210.388 172.81 205.744Z" fill="#C2C8D3"/>
<path d="M38.5401 47.9904L55.6089 46.54L27.2827 215.402H10.3427C9.53778 215.402 8.74311 215.222 8.01639 214.876C7.28967 214.53 6.64913 214.027 6.14139 213.402C5.63365 212.778 5.27144 212.048 5.08107 211.266C4.8907 210.484 4.87695 209.669 5.04084 208.881L38.5401 47.9904Z" fill="#D2D5DF"/>
<path d="M66.6796 60.8033C67.3163 60.8045 67.9288 60.5591 68.3884 60.1184C68.8481 59.6778 69.1193 59.0763 69.145 58.4401C69.159 58.1041 70.6289 24.7 84.9271 12.9274C88.9787 9.58983 93.5777 8.37463 98.9901 9.21183C126.975 13.5434 125.969 57.8213 125.955 58.2693C125.945 58.9167 126.189 59.5424 126.636 60.011C127.083 60.4796 127.696 60.7535 128.344 60.7733C128.991 60.7932 129.62 60.5575 130.095 60.1172C130.569 59.6769 130.852 59.0673 130.881 58.4205C130.896 57.9263 131.215 46.1872 127.703 33.6656C122.909 16.5716 113.241 6.43142 99.7433 4.34262C92.9575 3.29262 86.9179 4.90262 81.7897 9.12923C65.7906 22.313 64.2785 56.7867 64.2225 58.2483C64.2098 58.5714 64.2609 58.8939 64.3728 59.1973C64.4848 59.5007 64.6555 59.7791 64.8751 60.0165C65.0947 60.2539 65.3589 60.4457 65.6527 60.581C65.9464 60.7162 66.264 60.7922 66.5872 60.8047L66.6796 60.8033Z" fill="#7B818D"/>
<path d="M245.548 221.229C245.545 222.165 245.172 223.062 244.51 223.724C243.847 224.385 242.95 224.758 242.014 224.76H50.934C49.9982 224.758 49.1014 224.385 48.4393 223.724C47.7772 223.063 47.4037 222.166 47.4004 221.231L45.8114 111.422C45.8114 109.48 48.0976 105.69 52.2906 105.974L239.035 101.14C240.241 101.108 241.44 101.322 242.56 101.767C243.681 102.213 244.699 102.881 245.553 103.732C246.408 104.583 247.08 105.599 247.53 106.717C247.98 107.836 248.199 109.034 248.172 110.24L245.548 221.229Z" fill="#7B818D"/>
<path d="M242.059 217.843C242.054 218.728 241.7 219.575 241.074 220.201C240.448 220.827 239.601 221.18 238.716 221.184H55.5425C54.6568 221.182 53.8079 220.829 53.1815 220.203C52.555 219.577 52.2019 218.728 52.1993 217.843L50.6985 118.163C50.8749 112.164 56.1347 110.008 59.3225 110.135L238.3 105.333C239.148 105.311 239.992 105.461 240.78 105.775C241.568 106.088 242.284 106.559 242.884 107.158C243.485 107.757 243.957 108.472 244.273 109.259C244.589 110.047 244.741 110.89 244.72 111.738L242.059 217.843Z" fill="white"/>
<path d="M54.1792 170.485C54.2437 170.484 54.3075 170.471 54.3668 170.445C54.4262 170.42 54.4799 170.383 54.525 170.337C54.5702 170.291 54.6057 170.236 54.6297 170.176C54.6538 170.117 54.6657 170.052 54.665 169.988L54.546 161.903C54.5438 161.774 54.4912 161.652 54.3996 161.561C54.308 161.471 54.1846 161.42 54.056 161.42C53.9259 161.422 53.802 161.476 53.7114 161.569C53.6209 161.663 53.5711 161.788 53.573 161.918L53.692 170.002C53.6938 170.13 53.7459 170.253 53.8369 170.343C53.928 170.433 54.0509 170.484 54.1792 170.485Z" fill="#F1F1F1"/>
<path d="M53.8881 150.673C53.9525 150.672 54.016 150.659 54.0751 150.633C54.1342 150.608 54.1877 150.571 54.2326 150.525C54.2774 150.479 54.3127 150.424 54.3365 150.364C54.3603 150.305 54.372 150.241 54.3711 150.176L53.9161 119.214C53.9245 117.374 54.4761 115.906 55.5751 114.859C57.6149 112.899 60.8531 113.005 60.9903 113.011L118.196 111.471C118.325 111.467 118.448 111.412 118.538 111.318C118.627 111.224 118.675 111.098 118.672 110.968C118.673 110.903 118.66 110.838 118.635 110.778C118.61 110.718 118.573 110.664 118.525 110.619C118.478 110.574 118.422 110.539 118.361 110.517C118.299 110.495 118.234 110.486 118.169 110.491L60.9973 112.031C60.6417 112.01 57.1935 111.949 54.8975 114.15C53.6067 115.388 52.9459 117.09 52.9375 119.217L53.3925 150.19C53.3944 150.32 53.4476 150.444 53.5405 150.534C53.6334 150.625 53.7584 150.675 53.8881 150.673Z" fill="#F1F1F1"/>
<path d="M253.911 233.492L42.153 233.492C41.1942 233.492 40.417 232.715 40.417 231.756V225.963C40.417 225.004 41.1942 224.227 42.153 224.227L253.911 224.227C254.87 224.227 255.647 225.004 255.647 225.963V231.756C255.647 232.715 254.87 233.492 253.911 233.492Z" fill="#A8B2BC"/>
<path opacity="0.45" d="M188.343 144.7H231.975C235.283 144.7 237.964 147.381 237.964 150.689V195.03C237.964 198.337 235.283 201.019 231.975 201.019H188.343C185.035 201.019 182.354 198.337 182.354 195.03V150.689C182.354 147.381 185.035 144.7 188.343 144.7Z" fill="#D2D5DF"/>
<path opacity="0.45" d="M126.099 144.429H169.731C173.039 144.429 175.72 147.111 175.72 150.418V194.759C175.72 198.067 173.039 200.749 169.731 200.749H126.099C122.791 200.749 120.109 198.067 120.109 194.759V150.418C120.109 147.111 122.791 144.429 126.099 144.429Z" fill="#D2D5DF"/>
<path opacity="0.45" d="M63.8545 144.7H107.487C110.795 144.7 113.476 147.381 113.476 150.689V195.03C113.476 198.337 110.795 201.019 107.487 201.019H63.8545C60.5467 201.019 57.8653 198.337 57.8653 195.03V150.689C57.8653 147.381 60.5467 144.7 63.8545 144.7Z" fill="#D2D5DF"/>
<path d="M193.334 149.555C193.464 149.049 193.759 148.601 194.172 148.281C194.586 147.961 195.093 147.787 195.616 147.787H223.824C224.347 147.787 224.855 147.961 225.268 148.281C225.681 148.601 225.976 149.049 226.106 149.555C227.673 155.621 233.23 176.083 234.294 193.397C234.316 193.775 234.223 194.15 234.027 194.473C233.83 194.796 233.54 195.052 233.195 195.206C230.207 196.536 222.102 199.654 216.056 197.38C215.768 197.27 215.513 197.09 215.314 196.856C215.114 196.623 214.976 196.343 214.912 196.042C214.143 192.497 211.342 179.828 209.719 175.866C208.097 179.828 205.297 192.497 204.528 196.042C204.464 196.343 204.326 196.623 204.126 196.857C203.926 197.09 203.67 197.27 203.383 197.38C197.338 199.654 189.233 196.54 186.246 195.206C185.9 195.052 185.61 194.796 185.414 194.473C185.217 194.15 185.124 193.775 185.147 193.397C186.211 176.083 191.766 155.621 193.334 149.555Z" fill="#19D791"/>
<path d="M226.4 159.932C226.532 159.92 226.656 159.862 226.749 159.767C226.843 159.673 226.899 159.549 226.91 159.416C226.92 159.284 226.882 159.153 226.804 159.045C226.727 158.938 226.613 158.861 226.484 158.83C222.294 158.191 219.533 156.434 218.276 153.609C217.715 152.346 217.491 150.96 217.625 149.584C217.627 149.449 217.579 149.318 217.492 149.215C217.405 149.112 217.283 149.044 217.15 149.024C217.016 149.004 216.88 149.032 216.766 149.104C216.652 149.176 216.568 149.287 216.529 149.416C216.362 151.002 216.615 152.603 217.264 154.06C218.244 156.255 220.601 159.055 226.316 159.926C226.344 159.93 226.372 159.932 226.4 159.932Z" fill="white"/>
<path d="M193.744 159.024H193.773C197.133 158.849 199.989 157.146 202.053 154.095C202.995 152.697 203.704 151.156 204.153 149.531C204.183 149.456 204.197 149.376 204.193 149.296C204.19 149.216 204.169 149.137 204.132 149.066C204.096 148.994 204.044 148.931 203.981 148.882C203.918 148.832 203.845 148.796 203.767 148.777C203.689 148.758 203.608 148.756 203.529 148.771C203.45 148.786 203.375 148.818 203.309 148.865C203.244 148.911 203.189 148.971 203.149 149.041C203.109 149.11 203.084 149.188 203.076 149.268C202.65 150.773 201.988 152.202 201.115 153.5C199.231 156.273 196.741 157.759 193.716 157.916C193.584 157.939 193.464 158.008 193.379 158.112C193.294 158.216 193.249 158.347 193.253 158.481C193.256 158.615 193.308 158.744 193.398 158.843C193.488 158.943 193.611 159.006 193.744 159.023V159.024Z" fill="white"/>
<path d="M208.258 162.048H208.319L209.522 161.908C210.325 161.82 211.067 161.438 211.605 160.837C212.144 160.235 212.442 159.455 212.441 158.648V149.497C212.422 149.364 212.355 149.242 212.254 149.153C212.152 149.065 212.021 149.016 211.887 149.016C211.752 149.016 211.621 149.065 211.52 149.153C211.418 149.242 211.351 149.364 211.332 149.497V158.648C211.333 159.183 211.136 159.699 210.779 160.097C210.423 160.496 209.932 160.748 209.4 160.807L208.198 160.947C208.067 160.975 207.951 161.048 207.87 161.154C207.789 161.26 207.749 161.391 207.756 161.525C207.763 161.658 207.818 161.784 207.91 161.88C208.002 161.977 208.125 162.038 208.258 162.051V162.048Z" fill="white"/>
<path d="M186.815 193.476C186.866 193.475 186.916 193.455 186.953 193.42C186.99 193.385 187.012 193.336 187.015 193.285L187.032 192.984C187.035 192.931 187.017 192.878 186.981 192.838C186.945 192.798 186.895 192.774 186.842 192.771C186.788 192.768 186.736 192.787 186.696 192.823C186.656 192.858 186.632 192.908 186.629 192.962L186.613 193.263C186.612 193.289 186.615 193.316 186.624 193.341C186.633 193.366 186.646 193.389 186.664 193.409C186.682 193.429 186.703 193.445 186.727 193.456C186.751 193.468 186.777 193.474 186.804 193.476H186.815ZM186.871 192.47C186.922 192.47 186.972 192.45 187.009 192.415C187.046 192.379 187.068 192.331 187.071 192.28L187.089 191.979C187.093 191.952 187.09 191.924 187.082 191.898C187.075 191.872 187.062 191.847 187.044 191.826C187.026 191.805 187.005 191.788 186.98 191.775C186.956 191.763 186.929 191.756 186.902 191.754C186.874 191.752 186.847 191.756 186.821 191.766C186.795 191.775 186.772 191.789 186.752 191.808C186.732 191.827 186.716 191.849 186.705 191.874C186.694 191.899 186.688 191.926 186.688 191.954L186.669 192.256C186.668 192.283 186.671 192.309 186.68 192.334C186.688 192.359 186.702 192.382 186.719 192.402C186.737 192.422 186.758 192.438 186.782 192.449C186.806 192.461 186.832 192.468 186.858 192.469L186.871 192.47ZM186.933 191.464C186.984 191.464 187.033 191.444 187.071 191.409C187.108 191.374 187.131 191.326 187.134 191.275L187.154 190.974C187.157 190.92 187.139 190.868 187.104 190.827C187.069 190.787 187.019 190.762 186.965 190.759C186.912 190.755 186.859 190.773 186.819 190.809C186.779 190.844 186.754 190.894 186.751 190.947L186.731 191.25C186.729 191.276 186.733 191.303 186.741 191.328C186.75 191.353 186.763 191.376 186.781 191.396C186.799 191.416 186.82 191.432 186.844 191.444C186.868 191.455 186.894 191.462 186.92 191.464H186.933ZM187.001 190.459C187.052 190.458 187.101 190.439 187.138 190.404C187.175 190.369 187.198 190.322 187.201 190.271L187.222 189.97C187.224 189.918 187.206 189.867 187.171 189.829C187.136 189.79 187.088 189.766 187.036 189.762C186.984 189.759 186.932 189.775 186.892 189.808C186.852 189.841 186.826 189.889 186.821 189.941L186.8 190.242C186.797 190.268 186.801 190.295 186.809 190.32C186.817 190.345 186.83 190.368 186.848 190.388C186.865 190.408 186.886 190.425 186.91 190.437C186.934 190.448 186.959 190.455 186.986 190.457L187.001 190.459ZM187.074 189.453C187.125 189.453 187.174 189.434 187.211 189.4C187.248 189.365 187.271 189.318 187.276 189.267L187.298 188.965C187.3 188.913 187.282 188.861 187.247 188.822C187.213 188.783 187.164 188.759 187.112 188.755C187.06 188.751 187.008 188.767 186.968 188.801C186.928 188.834 186.902 188.882 186.896 188.934L186.872 189.236C186.869 189.29 186.886 189.342 186.921 189.383C186.956 189.423 187.005 189.448 187.059 189.452L187.074 189.453ZM187.154 188.448C187.204 188.448 187.253 188.429 187.29 188.395C187.327 188.361 187.35 188.314 187.354 188.263L187.379 187.962C187.384 187.909 187.367 187.856 187.332 187.815C187.298 187.775 187.248 187.749 187.195 187.745C187.142 187.74 187.089 187.757 187.048 187.792C187.007 187.826 186.982 187.876 186.977 187.929L186.952 188.23C186.948 188.283 186.965 188.336 187 188.377C187.034 188.417 187.084 188.443 187.137 188.447L187.154 188.448ZM187.239 187.443C187.29 187.443 187.338 187.424 187.375 187.39C187.412 187.356 187.435 187.31 187.439 187.26L187.466 186.959C187.471 186.906 187.454 186.853 187.42 186.812C187.386 186.771 187.337 186.745 187.284 186.74C187.231 186.736 187.177 186.752 187.136 186.787C187.095 186.821 187.069 186.87 187.064 186.924L187.038 187.225C187.035 187.251 187.038 187.278 187.046 187.303C187.054 187.328 187.067 187.352 187.084 187.372C187.101 187.392 187.122 187.409 187.145 187.421C187.169 187.433 187.195 187.441 187.221 187.443H187.239ZM187.33 186.439C187.38 186.439 187.429 186.421 187.466 186.387C187.503 186.353 187.526 186.307 187.53 186.257L187.558 185.956C187.563 185.929 187.562 185.901 187.555 185.874C187.548 185.847 187.536 185.822 187.519 185.8C187.502 185.778 187.481 185.76 187.457 185.747C187.433 185.733 187.406 185.725 187.378 185.722C187.351 185.72 187.323 185.723 187.297 185.731C187.271 185.74 187.246 185.754 187.226 185.772C187.205 185.791 187.188 185.813 187.177 185.838C187.165 185.863 187.159 185.891 187.158 185.918L187.129 186.219C187.124 186.273 187.14 186.326 187.174 186.367C187.209 186.408 187.257 186.434 187.311 186.439H187.33ZM187.427 185.437C187.477 185.437 187.525 185.418 187.562 185.384C187.599 185.351 187.622 185.305 187.627 185.255L187.658 184.954C187.66 184.927 187.658 184.901 187.65 184.875C187.643 184.85 187.63 184.826 187.613 184.806C187.597 184.785 187.576 184.768 187.553 184.756C187.529 184.743 187.504 184.735 187.477 184.733C187.451 184.73 187.424 184.733 187.399 184.74C187.373 184.748 187.35 184.76 187.329 184.777C187.309 184.794 187.292 184.815 187.279 184.838C187.266 184.861 187.259 184.887 187.256 184.913L187.227 185.214C187.224 185.241 187.226 185.267 187.234 185.293C187.242 185.318 187.254 185.342 187.271 185.362C187.288 185.383 187.308 185.4 187.332 185.412C187.355 185.425 187.381 185.433 187.407 185.435L187.427 185.437ZM187.529 184.433C187.579 184.434 187.627 184.416 187.664 184.382C187.701 184.349 187.724 184.303 187.729 184.254L187.761 183.953C187.765 183.901 187.748 183.85 187.714 183.811C187.681 183.771 187.633 183.746 187.582 183.74C187.53 183.735 187.479 183.749 187.438 183.781C187.396 183.812 187.369 183.858 187.361 183.909L187.329 184.21C187.323 184.264 187.339 184.317 187.373 184.359C187.406 184.4 187.455 184.427 187.508 184.433H187.529ZM187.638 183.432C187.688 183.432 187.735 183.413 187.772 183.38C187.809 183.347 187.833 183.302 187.838 183.253L187.872 182.952C187.878 182.899 187.862 182.845 187.829 182.803C187.796 182.761 187.747 182.734 187.693 182.729C187.64 182.723 187.587 182.738 187.545 182.772C187.503 182.805 187.476 182.854 187.47 182.907L187.437 183.208C187.431 183.261 187.447 183.315 187.48 183.356C187.514 183.398 187.563 183.425 187.616 183.431L187.638 183.432ZM187.752 182.43C187.801 182.429 187.848 182.411 187.885 182.378C187.922 182.346 187.946 182.301 187.952 182.252L187.987 181.952C187.993 181.899 187.978 181.846 187.945 181.804C187.912 181.762 187.863 181.735 187.81 181.728C187.757 181.722 187.704 181.737 187.662 181.77C187.62 181.803 187.593 181.852 187.586 181.905L187.551 182.206C187.548 182.232 187.55 182.258 187.558 182.284C187.565 182.309 187.577 182.333 187.593 182.354C187.61 182.374 187.63 182.392 187.653 182.404C187.676 182.417 187.702 182.425 187.728 182.428L187.752 182.43ZM187.872 181.429C187.921 181.429 187.968 181.411 188.005 181.378C188.042 181.346 188.065 181.301 188.071 181.252L188.109 180.953C188.115 180.9 188.101 180.846 188.068 180.804C188.035 180.761 187.987 180.734 187.934 180.727C187.88 180.721 187.827 180.735 187.785 180.768C187.742 180.801 187.715 180.849 187.708 180.902L187.67 181.203C187.667 181.23 187.669 181.256 187.677 181.282C187.684 181.307 187.696 181.331 187.712 181.352C187.729 181.373 187.749 181.39 187.772 181.403C187.795 181.416 187.82 181.424 187.847 181.427L187.872 181.429ZM187.997 180.429C188.046 180.429 188.093 180.411 188.13 180.379C188.167 180.346 188.191 180.301 188.197 180.253L188.235 179.953C188.238 179.902 188.222 179.852 188.189 179.812C188.156 179.772 188.11 179.747 188.059 179.74C188.009 179.734 187.957 179.747 187.916 179.776C187.874 179.806 187.845 179.851 187.836 179.901L187.796 180.202C187.793 180.229 187.795 180.255 187.802 180.281C187.809 180.306 187.821 180.33 187.837 180.351C187.853 180.372 187.874 180.39 187.897 180.403C187.92 180.416 187.945 180.424 187.971 180.428L187.997 180.429ZM188.128 179.429C188.177 179.429 188.224 179.412 188.261 179.38C188.297 179.347 188.321 179.303 188.327 179.254L188.368 178.955C188.373 178.928 188.372 178.9 188.366 178.873C188.361 178.847 188.349 178.821 188.333 178.799C188.317 178.777 188.297 178.758 188.273 178.744C188.25 178.73 188.223 178.721 188.196 178.717C188.169 178.713 188.141 178.715 188.115 178.723C188.089 178.73 188.064 178.743 188.043 178.76C188.021 178.777 188.004 178.799 187.991 178.823C187.978 178.848 187.971 178.874 187.969 178.902L187.928 179.201C187.924 179.228 187.926 179.254 187.933 179.28C187.94 179.306 187.952 179.33 187.968 179.351C187.984 179.372 188.004 179.389 188.027 179.403C188.05 179.416 188.075 179.425 188.102 179.428L188.128 179.429ZM188.268 178.431C188.317 178.431 188.364 178.414 188.401 178.382C188.438 178.35 188.462 178.306 188.468 178.258L188.51 177.958C188.515 177.931 188.515 177.904 188.508 177.878C188.502 177.851 188.491 177.826 188.475 177.804C188.459 177.782 188.439 177.764 188.416 177.75C188.393 177.736 188.367 177.727 188.34 177.723C188.313 177.719 188.286 177.721 188.26 177.728C188.233 177.735 188.209 177.747 188.188 177.764C188.166 177.781 188.148 177.801 188.135 177.825C188.122 177.849 188.114 177.875 188.111 177.902L188.069 178.202C188.066 178.228 188.067 178.254 188.074 178.28C188.08 178.305 188.092 178.329 188.108 178.351C188.123 178.372 188.143 178.389 188.166 178.403C188.189 178.416 188.214 178.425 188.24 178.428L188.268 178.431ZM188.408 177.433C188.457 177.433 188.503 177.416 188.54 177.384C188.577 177.352 188.601 177.309 188.608 177.261L188.652 176.961C188.66 176.908 188.646 176.854 188.614 176.812C188.582 176.769 188.535 176.74 188.482 176.732C188.429 176.725 188.375 176.738 188.332 176.77C188.289 176.802 188.261 176.85 188.253 176.902L188.209 177.202C188.205 177.228 188.207 177.255 188.213 177.28C188.219 177.306 188.231 177.33 188.247 177.351C188.262 177.373 188.282 177.391 188.305 177.404C188.327 177.418 188.353 177.426 188.379 177.43L188.408 177.433ZM188.557 176.436C188.605 176.436 188.651 176.419 188.688 176.387C188.724 176.355 188.748 176.312 188.755 176.264L188.802 175.966C188.806 175.94 188.804 175.913 188.798 175.887C188.792 175.861 188.781 175.837 188.765 175.816C188.733 175.773 188.686 175.744 188.633 175.736C188.58 175.727 188.526 175.741 188.483 175.772C188.44 175.804 188.411 175.851 188.403 175.904L188.356 176.204C188.349 176.257 188.362 176.31 188.394 176.353C188.426 176.396 188.473 176.425 188.526 176.433L188.557 176.436ZM188.711 175.439C188.759 175.44 188.805 175.423 188.841 175.392C188.878 175.361 188.902 175.317 188.909 175.27L188.957 174.972C188.966 174.919 188.953 174.865 188.921 174.821C188.89 174.778 188.843 174.749 188.79 174.74C188.737 174.732 188.683 174.744 188.639 174.776C188.596 174.807 188.567 174.855 188.558 174.907L188.512 175.207C188.508 175.233 188.509 175.26 188.515 175.285C188.521 175.311 188.532 175.335 188.547 175.356C188.563 175.378 188.582 175.396 188.605 175.41C188.627 175.423 188.652 175.433 188.678 175.437C188.688 175.439 188.699 175.44 188.709 175.439H188.711ZM188.87 174.444C188.918 174.444 188.964 174.427 189 174.396C189.037 174.365 189.061 174.322 189.069 174.275L189.118 173.978C189.123 173.951 189.123 173.924 189.118 173.898C189.112 173.871 189.101 173.846 189.086 173.824C189.071 173.802 189.051 173.783 189.028 173.768C189.005 173.754 188.98 173.744 188.953 173.74C188.926 173.736 188.899 173.736 188.873 173.743C188.847 173.749 188.822 173.761 188.8 173.777C188.779 173.793 188.76 173.813 188.747 173.836C188.733 173.86 188.724 173.885 188.72 173.912L188.671 174.21C188.667 174.236 188.668 174.263 188.674 174.289C188.68 174.315 188.691 174.339 188.706 174.361C188.722 174.382 188.742 174.4 188.764 174.414C188.787 174.428 188.812 174.437 188.838 174.441C188.848 174.443 188.858 174.444 188.869 174.444H188.87ZM189.035 173.45C189.083 173.45 189.129 173.433 189.165 173.402C189.202 173.371 189.226 173.329 189.234 173.282L189.285 172.984C189.293 172.931 189.281 172.877 189.25 172.833C189.219 172.79 189.172 172.76 189.119 172.751C189.067 172.743 189.013 172.755 188.969 172.786C188.925 172.817 188.896 172.864 188.887 172.917L188.837 173.215C188.832 173.241 188.833 173.268 188.838 173.294C188.844 173.32 188.855 173.344 188.871 173.366C188.886 173.387 188.905 173.406 188.928 173.42C188.951 173.434 188.976 173.443 189.002 173.447L189.035 173.45ZM189.206 172.456C189.254 172.456 189.3 172.439 189.336 172.409C189.372 172.379 189.397 172.336 189.405 172.289L189.457 171.993C189.466 171.94 189.454 171.886 189.423 171.842C189.393 171.798 189.346 171.768 189.293 171.759C189.24 171.75 189.186 171.762 189.142 171.792C189.098 171.823 189.068 171.87 189.059 171.923L189.007 172.221C189.003 172.247 189.003 172.274 189.009 172.299C189.015 172.325 189.026 172.35 189.041 172.371C189.056 172.393 189.075 172.411 189.098 172.425C189.12 172.439 189.145 172.449 189.171 172.453C189.182 172.455 189.194 172.456 189.205 172.456H189.206ZM189.383 171.465C189.43 171.465 189.476 171.448 189.512 171.417C189.548 171.387 189.573 171.345 189.581 171.298L189.635 171.001C189.641 170.975 189.641 170.947 189.636 170.921C189.632 170.894 189.621 170.868 189.606 170.846C189.591 170.823 189.572 170.804 189.549 170.789C189.527 170.774 189.501 170.763 189.474 170.758C189.448 170.753 189.42 170.754 189.394 170.76C189.367 170.766 189.342 170.777 189.32 170.793C189.298 170.809 189.279 170.829 189.265 170.853C189.251 170.876 189.242 170.902 189.238 170.929L189.184 171.227C189.174 171.279 189.186 171.333 189.217 171.377C189.247 171.421 189.294 171.451 189.346 171.461L189.383 171.465ZM189.565 170.472C189.612 170.472 189.657 170.456 189.694 170.426C189.73 170.396 189.755 170.355 189.763 170.308L189.819 170.012C189.829 169.959 189.818 169.905 189.788 169.861C189.758 169.816 189.712 169.786 189.659 169.776C189.607 169.766 189.552 169.777 189.508 169.807C189.464 169.837 189.433 169.884 189.423 169.936L189.367 170.234C189.357 170.287 189.369 170.341 189.399 170.385C189.429 170.429 189.476 170.46 189.528 170.469C189.54 170.472 189.551 170.473 189.563 170.472H189.565ZM189.754 169.482C189.8 169.482 189.846 169.466 189.882 169.436C189.918 169.406 189.942 169.365 189.951 169.319L190.008 169.022C190.019 168.969 190.008 168.915 189.978 168.871C189.948 168.826 189.901 168.795 189.849 168.785C189.796 168.775 189.742 168.786 189.697 168.816C189.653 168.846 189.622 168.892 189.612 168.945L189.555 169.243C189.55 169.269 189.55 169.296 189.555 169.322C189.56 169.347 189.571 169.372 189.586 169.394C189.6 169.416 189.619 169.434 189.642 169.449C189.664 169.463 189.688 169.473 189.714 169.478C189.727 169.481 189.739 169.482 189.752 169.482H189.754ZM189.947 168.493C189.993 168.493 190.038 168.477 190.074 168.448C190.11 168.418 190.135 168.377 190.144 168.332L190.204 168.035C190.21 168.009 190.21 167.982 190.205 167.956C190.199 167.93 190.189 167.905 190.175 167.883C190.16 167.861 190.141 167.842 190.119 167.827C190.097 167.812 190.072 167.802 190.046 167.797C190.02 167.792 189.993 167.792 189.967 167.797C189.941 167.802 189.917 167.812 189.894 167.827C189.872 167.841 189.853 167.86 189.839 167.882C189.824 167.904 189.813 167.929 189.808 167.955L189.749 168.252C189.744 168.278 189.744 168.305 189.749 168.331C189.754 168.357 189.764 168.382 189.779 168.404C189.794 168.426 189.813 168.445 189.835 168.46C189.857 168.474 189.882 168.485 189.908 168.49C189.92 168.492 189.933 168.493 189.945 168.493H189.947ZM190.147 167.513C190.193 167.513 190.238 167.497 190.274 167.467C190.31 167.438 190.335 167.397 190.344 167.352L190.405 167.055C190.414 167.003 190.402 166.95 190.373 166.906C190.344 166.863 190.298 166.833 190.247 166.822C190.195 166.811 190.142 166.821 190.097 166.85C190.053 166.878 190.022 166.922 190.01 166.974L189.95 167.27C189.939 167.323 189.949 167.377 189.979 167.422C190.008 167.467 190.054 167.498 190.106 167.508C190.12 167.507 190.133 167.504 190.146 167.5L190.147 167.513ZM190.353 166.533C190.399 166.532 190.443 166.516 190.479 166.487C190.515 166.458 190.539 166.418 190.549 166.373L190.612 166.078C190.62 166.027 190.608 165.975 190.579 165.932C190.55 165.89 190.506 165.86 190.455 165.849C190.405 165.838 190.352 165.847 190.308 165.874C190.264 165.9 190.232 165.943 190.218 165.992L190.155 166.289C190.15 166.315 190.149 166.342 190.154 166.368C190.159 166.394 190.169 166.419 190.183 166.441C190.198 166.463 190.217 166.482 190.238 166.497C190.26 166.512 190.285 166.523 190.311 166.528L190.353 166.533ZM190.564 165.553C190.61 165.553 190.655 165.537 190.691 165.508C190.726 165.479 190.751 165.438 190.76 165.393L190.825 165.099C190.832 165.073 190.833 165.045 190.829 165.019C190.825 164.992 190.816 164.966 190.802 164.943C190.788 164.919 190.769 164.899 190.747 164.884C190.725 164.868 190.7 164.857 190.673 164.851C190.647 164.845 190.619 164.844 190.592 164.85C190.566 164.855 190.54 164.865 190.518 164.88C190.495 164.895 190.476 164.915 190.461 164.937C190.446 164.96 190.436 164.986 190.431 165.012L190.367 165.308C190.361 165.334 190.36 165.36 190.365 165.386C190.37 165.412 190.379 165.437 190.394 165.46C190.408 165.482 190.427 165.501 190.449 165.516C190.47 165.531 190.495 165.542 190.521 165.547C190.535 165.547 190.549 165.544 190.563 165.54L190.564 165.553ZM190.781 164.573C190.827 164.572 190.871 164.557 190.907 164.528C190.943 164.499 190.967 164.459 190.977 164.414L191.044 164.12C191.056 164.068 191.047 164.013 191.018 163.968C190.989 163.923 190.944 163.89 190.892 163.878C190.84 163.867 190.785 163.876 190.74 163.905C190.695 163.933 190.663 163.979 190.651 164.031L190.584 164.326C190.572 164.378 190.582 164.433 190.61 164.478C190.639 164.523 190.684 164.555 190.736 164.567C190.751 164.562 190.766 164.556 190.78 164.549L190.781 164.573ZM191.005 163.593C191.05 163.592 191.094 163.577 191.13 163.549C191.165 163.521 191.191 163.481 191.201 163.437L191.268 163.143C191.276 163.117 191.278 163.09 191.275 163.063C191.271 163.035 191.262 163.009 191.248 162.986C191.235 162.962 191.216 162.942 191.194 162.926C191.172 162.909 191.147 162.898 191.121 162.892C191.094 162.885 191.067 162.884 191.04 162.889C191.013 162.894 190.987 162.904 190.964 162.919C190.942 162.934 190.922 162.953 190.907 162.976C190.892 162.999 190.881 163.024 190.876 163.051L190.808 163.346C190.802 163.372 190.801 163.399 190.805 163.425C190.81 163.451 190.819 163.476 190.833 163.499C190.847 163.521 190.865 163.541 190.887 163.556C190.909 163.572 190.933 163.583 190.959 163.588C190.973 163.582 190.987 163.574 191 163.565L191.005 163.593ZM191.233 162.613C191.279 162.613 191.323 162.598 191.359 162.57C191.395 162.541 191.419 162.502 191.429 162.457L191.499 162.165C191.506 162.139 191.508 162.112 191.504 162.085C191.501 162.058 191.492 162.033 191.478 162.01C191.464 161.986 191.446 161.966 191.424 161.95C191.402 161.934 191.378 161.923 191.351 161.917C191.325 161.91 191.298 161.909 191.272 161.914C191.245 161.918 191.22 161.928 191.197 161.942C191.174 161.957 191.155 161.975 191.139 161.998C191.124 162.02 191.113 162.045 191.107 162.071L191.037 162.365C191.025 162.417 191.034 162.472 191.062 162.517C191.09 162.562 191.135 162.595 191.187 162.607C191.203 162.601 191.218 162.593 191.232 162.583L191.233 162.613ZM191.47 161.633C191.515 161.633 191.559 161.617 191.594 161.589C191.629 161.562 191.654 161.523 191.665 161.479L191.737 161.186C191.75 161.134 191.742 161.079 191.714 161.033C191.686 160.988 191.642 160.955 191.59 160.942C191.538 160.929 191.483 160.937 191.437 160.965C191.391 160.993 191.358 161.038 191.345 161.089L191.274 161.384C191.268 161.409 191.267 161.436 191.271 161.462C191.275 161.488 191.284 161.513 191.298 161.536C191.311 161.559 191.33 161.578 191.351 161.594C191.372 161.61 191.397 161.621 191.422 161.627C191.439 161.621 191.454 161.613 191.469 161.603L191.47 161.633ZM191.711 160.653C191.756 160.653 191.8 160.638 191.835 160.61C191.871 160.583 191.896 160.544 191.907 160.5L191.981 160.208C191.994 160.156 191.986 160.1 191.959 160.054C191.931 160.008 191.887 159.975 191.835 159.962C191.783 159.949 191.728 159.957 191.682 159.984C191.635 160.012 191.602 160.056 191.589 160.108L191.516 160.402C191.508 160.432 191.507 160.463 191.513 160.493C191.519 160.523 191.532 160.552 191.551 160.576C191.57 160.6 191.594 160.62 191.622 160.633C191.65 160.646 191.68 160.653 191.711 160.653ZM191.96 159.673C192.005 159.673 192.048 159.658 192.083 159.63C192.118 159.603 192.143 159.565 192.155 159.522L192.23 159.229C192.247 159.177 192.243 159.121 192.218 159.072C192.194 159.023 192.151 158.986 192.099 158.969C192.047 158.952 191.991 158.956 191.942 158.981C191.894 159.005 191.857 159.048 191.84 159.1L191.764 159.393C191.75 159.444 191.757 159.498 191.783 159.544C191.81 159.59 191.853 159.624 191.904 159.638C191.921 159.644 191.94 159.648 191.959 159.648L191.96 159.673ZM192.215 158.693C192.259 158.693 192.302 158.678 192.337 158.651C192.373 158.624 192.398 158.586 192.409 158.543L192.486 158.25C192.497 158.2 192.488 158.147 192.461 158.103C192.434 158.058 192.391 158.026 192.341 158.013C192.291 158 192.238 158.006 192.192 158.031C192.147 158.056 192.113 158.097 192.097 158.147L192.019 158.439C192.005 158.491 192.012 158.545 192.038 158.591C192.064 158.637 192.108 158.671 192.159 158.686C192.178 158.684 192.196 158.68 192.213 158.672L192.215 158.693ZM192.475 157.713C192.52 157.713 192.563 157.698 192.598 157.671C192.633 157.644 192.658 157.606 192.67 157.563L192.75 157.272C192.764 157.22 192.757 157.165 192.73 157.119C192.704 157.072 192.66 157.038 192.608 157.024C192.557 157.01 192.501 157.017 192.455 157.043C192.408 157.07 192.374 157.114 192.36 157.165L192.281 157.458C192.267 157.509 192.274 157.564 192.3 157.61C192.326 157.657 192.369 157.691 192.421 157.706C192.438 157.706 192.456 157.704 192.474 157.7L192.475 157.713ZM192.744 156.733C192.787 156.733 192.829 156.72 192.864 156.695C192.899 156.67 192.924 156.634 192.937 156.593L193.02 156.302C193.027 156.276 193.029 156.249 193.026 156.223C193.023 156.197 193.014 156.171 193.001 156.148C192.988 156.125 192.971 156.104 192.95 156.088C192.929 156.072 192.905 156.059 192.88 156.052C192.854 156.045 192.827 156.043 192.801 156.046C192.775 156.049 192.749 156.058 192.726 156.071C192.703 156.084 192.683 156.101 192.666 156.122C192.65 156.143 192.638 156.167 192.631 156.192L192.549 156.485C192.535 156.536 192.542 156.591 192.568 156.638C192.594 156.684 192.638 156.718 192.689 156.733C192.708 156.731 192.726 156.727 192.743 156.72L192.744 156.733ZM193.024 155.764C193.067 155.764 193.109 155.751 193.144 155.725C193.179 155.7 193.205 155.665 193.219 155.624L193.301 155.334C193.312 155.284 193.304 155.232 193.277 155.188C193.251 155.144 193.209 155.112 193.16 155.097C193.111 155.083 193.059 155.088 193.013 155.111C192.967 155.134 192.932 155.174 192.915 155.222L192.831 155.513C192.822 155.543 192.821 155.575 192.827 155.605C192.832 155.636 192.845 155.665 192.864 155.69C192.883 155.715 192.907 155.735 192.934 155.749C192.962 155.763 192.993 155.771 193.024 155.771V155.764ZM193.304 154.795C193.347 154.796 193.389 154.782 193.424 154.757C193.458 154.732 193.484 154.696 193.497 154.655L193.584 154.365C193.598 154.315 193.591 154.26 193.566 154.214C193.54 154.168 193.497 154.134 193.447 154.119C193.396 154.104 193.342 154.109 193.295 154.134C193.249 154.159 193.214 154.2 193.198 154.251L193.111 154.54C193.103 154.566 193.101 154.593 193.104 154.619C193.107 154.646 193.115 154.672 193.128 154.695C193.141 154.718 193.159 154.739 193.18 154.755C193.201 154.772 193.225 154.784 193.251 154.791C193.267 154.792 193.284 154.791 193.3 154.788L193.304 154.795ZM193.595 153.829C193.638 153.829 193.679 153.816 193.714 153.79C193.748 153.765 193.774 153.73 193.787 153.689L193.877 153.401C193.892 153.349 193.887 153.294 193.862 153.247C193.837 153.199 193.794 153.164 193.743 153.148C193.692 153.132 193.636 153.137 193.589 153.163C193.541 153.188 193.506 153.23 193.49 153.282L193.402 153.572C193.394 153.597 193.392 153.624 193.395 153.651C193.398 153.678 193.406 153.704 193.419 153.727C193.432 153.75 193.45 153.771 193.471 153.788C193.492 153.804 193.516 153.816 193.542 153.824C193.558 153.825 193.575 153.824 193.591 153.822L193.595 153.829ZM193.893 152.866C193.936 152.866 193.978 152.853 194.012 152.827C194.047 152.802 194.072 152.767 194.085 152.726L194.178 152.438C194.186 152.412 194.188 152.386 194.186 152.359C194.184 152.333 194.176 152.307 194.164 152.284C194.152 152.26 194.135 152.239 194.115 152.222C194.095 152.205 194.071 152.192 194.046 152.184C194.021 152.176 193.994 152.173 193.968 152.175C193.941 152.178 193.916 152.185 193.892 152.197C193.868 152.21 193.848 152.226 193.831 152.247C193.813 152.267 193.801 152.29 193.793 152.316L193.702 152.604C193.694 152.629 193.691 152.656 193.693 152.682C193.695 152.709 193.703 152.735 193.715 152.758C193.727 152.782 193.744 152.803 193.764 152.82C193.784 152.837 193.808 152.85 193.833 152.858C193.852 152.86 193.87 152.861 193.889 152.859L193.893 152.866ZM194.201 151.906C194.244 151.906 194.286 151.892 194.32 151.867C194.355 151.842 194.38 151.806 194.393 151.766L194.487 151.486C194.497 151.46 194.502 151.433 194.501 151.405C194.5 151.378 194.494 151.351 194.482 151.326C194.471 151.301 194.454 151.278 194.434 151.26C194.413 151.242 194.389 151.228 194.363 151.219C194.337 151.211 194.309 151.207 194.282 151.21C194.254 151.212 194.228 151.22 194.203 151.234C194.179 151.247 194.158 151.265 194.141 151.286C194.124 151.308 194.112 151.333 194.105 151.36L194.01 151.647C193.993 151.698 193.998 151.753 194.022 151.801C194.047 151.849 194.089 151.885 194.14 151.901C194.159 151.903 194.178 151.902 194.197 151.899L194.201 151.906ZM194.521 150.948C194.563 150.948 194.604 150.934 194.639 150.909C194.673 150.884 194.698 150.848 194.711 150.808L194.809 150.528C194.819 150.503 194.825 150.475 194.824 150.448C194.824 150.42 194.818 150.393 194.806 150.368C194.795 150.343 194.778 150.32 194.758 150.302C194.738 150.283 194.714 150.269 194.688 150.26C194.662 150.252 194.634 150.248 194.607 150.25C194.579 150.252 194.553 150.26 194.528 150.273C194.504 150.286 194.483 150.304 194.465 150.325C194.448 150.346 194.435 150.371 194.428 150.398C194.397 150.487 194.364 150.583 194.33 150.678C194.321 150.703 194.318 150.729 194.319 150.756C194.321 150.782 194.328 150.808 194.34 150.832C194.351 150.855 194.368 150.877 194.388 150.894C194.408 150.911 194.431 150.924 194.456 150.933C194.476 150.939 194.496 150.942 194.516 150.941L194.521 150.948ZM194.854 149.995C194.896 149.994 194.937 149.98 194.971 149.955C195.005 149.93 195.03 149.895 195.043 149.855C195.11 149.668 195.146 149.575 195.146 149.575C195.158 149.549 195.165 149.522 195.165 149.494C195.166 149.466 195.161 149.438 195.151 149.413C195.14 149.387 195.124 149.363 195.104 149.344C195.084 149.324 195.06 149.309 195.034 149.3C195.008 149.29 194.98 149.286 194.952 149.287C194.924 149.289 194.897 149.296 194.872 149.309C194.848 149.322 194.826 149.339 194.808 149.361C194.79 149.383 194.777 149.408 194.77 149.435C194.77 149.435 194.732 149.533 194.663 149.723C194.645 149.773 194.648 149.829 194.671 149.878C194.694 149.926 194.735 149.964 194.785 149.982C194.806 149.987 194.828 149.989 194.85 149.988L194.854 149.995Z" fill="white"/>
<path d="M233.203 193.193H233.215C233.242 193.191 233.268 193.184 233.292 193.173C233.315 193.161 233.337 193.145 233.354 193.125C233.372 193.105 233.385 193.082 233.394 193.057C233.403 193.032 233.406 193.005 233.404 192.979L233.395 192.818C233.389 192.766 233.363 192.719 233.323 192.686C233.284 192.653 233.233 192.637 233.181 192.64C233.129 192.643 233.081 192.667 233.046 192.705C233.011 192.743 232.992 192.793 232.993 192.844L233.003 193.004C233.006 193.055 233.028 193.103 233.065 193.138C233.103 193.173 233.152 193.193 233.203 193.193ZM233.145 192.328H233.159C233.213 192.324 233.262 192.299 233.297 192.258C233.332 192.218 233.349 192.165 233.346 192.112L233.325 191.81C233.32 191.756 233.295 191.707 233.255 191.672C233.214 191.637 233.161 191.619 233.108 191.623C233.054 191.628 233.004 191.653 232.97 191.693C232.935 191.734 232.917 191.787 232.921 191.84L232.944 192.141C232.948 192.191 232.97 192.238 233.006 192.272C233.042 192.306 233.09 192.326 233.14 192.328H233.145ZM233.068 191.322H233.085C233.138 191.318 233.187 191.292 233.222 191.252C233.257 191.211 233.274 191.159 233.27 191.105L233.245 190.803C233.24 190.75 233.215 190.7 233.174 190.666C233.133 190.631 233.08 190.614 233.027 190.619C232.974 190.623 232.924 190.649 232.89 190.69C232.855 190.73 232.839 190.783 232.843 190.837L232.868 191.138C232.872 191.188 232.895 191.235 232.932 191.269C232.969 191.303 233.018 191.322 233.068 191.322ZM232.983 190.319H233C233.026 190.316 233.052 190.309 233.075 190.297C233.099 190.284 233.12 190.268 233.137 190.247C233.154 190.227 233.167 190.204 233.175 190.178C233.183 190.153 233.185 190.127 233.183 190.1L233.155 189.798C233.153 189.772 233.145 189.746 233.133 189.722C233.121 189.699 233.104 189.678 233.084 189.661C233.064 189.644 233.04 189.632 233.015 189.624C232.99 189.616 232.963 189.613 232.937 189.616C232.883 189.621 232.834 189.647 232.8 189.688C232.765 189.729 232.749 189.782 232.753 189.836L232.781 190.135C232.786 190.186 232.809 190.233 232.846 190.267C232.883 190.301 232.932 190.32 232.983 190.32V190.319ZM232.889 189.315H232.909C232.962 189.31 233.011 189.283 233.045 189.242C233.079 189.201 233.095 189.148 233.091 189.095L233.061 188.793C233.056 188.739 233.03 188.69 232.988 188.657C232.947 188.623 232.893 188.607 232.84 188.612C232.787 188.617 232.738 188.644 232.704 188.685C232.67 188.727 232.654 188.78 232.66 188.833L232.689 189.133C232.694 189.183 232.717 189.229 232.754 189.262C232.791 189.296 232.839 189.315 232.889 189.315ZM232.788 188.311H232.809C232.836 188.308 232.861 188.301 232.885 188.288C232.908 188.275 232.928 188.258 232.945 188.238C232.962 188.217 232.974 188.194 232.982 188.168C232.989 188.143 232.991 188.116 232.989 188.09L232.958 187.789C232.955 187.762 232.947 187.737 232.934 187.714C232.921 187.69 232.904 187.67 232.884 187.653C232.863 187.636 232.839 187.624 232.814 187.617C232.788 187.609 232.762 187.607 232.735 187.61C232.709 187.612 232.683 187.621 232.66 187.633C232.637 187.646 232.616 187.663 232.599 187.684C232.583 187.704 232.57 187.728 232.563 187.754C232.555 187.779 232.553 187.806 232.556 187.832L232.588 188.132C232.594 188.181 232.617 188.227 232.654 188.26C232.691 188.293 232.739 188.311 232.788 188.311ZM232.681 187.309H232.703C232.756 187.303 232.805 187.276 232.838 187.234C232.871 187.192 232.887 187.139 232.881 187.086L232.847 186.785C232.845 186.758 232.837 186.732 232.824 186.708C232.812 186.685 232.795 186.664 232.774 186.647C232.753 186.63 232.729 186.617 232.703 186.609C232.677 186.602 232.65 186.599 232.623 186.603C232.596 186.606 232.571 186.614 232.547 186.627C232.524 186.641 232.503 186.658 232.487 186.68C232.47 186.701 232.458 186.725 232.451 186.751C232.445 186.777 232.443 186.805 232.447 186.831L232.48 187.131C232.486 187.18 232.509 187.225 232.546 187.258C232.583 187.291 232.631 187.309 232.681 187.309ZM232.564 186.308H232.59C232.643 186.301 232.691 186.274 232.724 186.232C232.757 186.19 232.772 186.137 232.766 186.084L232.73 185.783C232.723 185.73 232.696 185.681 232.654 185.648C232.612 185.615 232.559 185.6 232.506 185.606C232.452 185.613 232.404 185.64 232.371 185.682C232.338 185.724 232.323 185.777 232.329 185.83L232.366 186.13C232.371 186.179 232.394 186.224 232.431 186.257C232.468 186.289 232.515 186.308 232.564 186.308ZM232.444 185.307H232.468C232.494 185.304 232.519 185.295 232.543 185.282C232.566 185.269 232.586 185.252 232.602 185.231C232.619 185.21 232.631 185.187 232.638 185.161C232.645 185.136 232.647 185.109 232.644 185.083L232.606 184.782C232.603 184.755 232.595 184.73 232.581 184.707C232.568 184.684 232.551 184.664 232.53 184.647C232.509 184.631 232.485 184.619 232.459 184.612C232.434 184.605 232.407 184.603 232.381 184.607C232.355 184.61 232.329 184.618 232.306 184.632C232.283 184.645 232.263 184.662 232.247 184.683C232.231 184.704 232.219 184.728 232.212 184.753C232.205 184.779 232.203 184.806 232.206 184.832L232.244 185.132C232.25 185.179 232.274 185.223 232.31 185.255C232.346 185.287 232.392 185.305 232.44 185.307H232.444ZM232.315 184.306H232.342C232.395 184.299 232.443 184.271 232.475 184.229C232.508 184.187 232.522 184.133 232.515 184.08L232.476 183.779C232.469 183.726 232.441 183.678 232.399 183.645C232.378 183.629 232.354 183.618 232.328 183.611C232.302 183.604 232.276 183.602 232.249 183.606C232.223 183.609 232.198 183.618 232.175 183.631C232.152 183.644 232.132 183.662 232.116 183.683C232.099 183.704 232.088 183.728 232.081 183.754C232.074 183.779 232.072 183.806 232.076 183.832L232.116 184.132C232.124 184.179 232.148 184.222 232.185 184.253C232.221 184.284 232.267 184.3 232.315 184.3V184.306ZM232.182 183.306H232.209C232.235 183.303 232.26 183.294 232.283 183.281C232.306 183.267 232.326 183.25 232.342 183.229C232.358 183.207 232.37 183.183 232.377 183.158C232.383 183.132 232.385 183.105 232.381 183.079L232.34 182.78C232.338 182.752 232.33 182.726 232.317 182.702C232.304 182.678 232.287 182.657 232.265 182.64C232.244 182.623 232.219 182.61 232.193 182.603C232.167 182.596 232.139 182.594 232.112 182.597C232.085 182.601 232.059 182.61 232.036 182.624C232.012 182.638 231.992 182.657 231.976 182.679C231.96 182.701 231.949 182.727 231.943 182.753C231.937 182.78 231.936 182.807 231.941 182.834L231.982 183.134C231.989 183.182 232.013 183.226 232.05 183.257C232.087 183.289 232.134 183.306 232.182 183.306ZM232.042 182.305H232.07C232.123 182.297 232.171 182.269 232.203 182.226C232.236 182.184 232.25 182.13 232.242 182.077L232.199 181.776C232.191 181.723 232.163 181.676 232.12 181.644C232.077 181.612 232.024 181.598 231.971 181.605C231.944 181.609 231.919 181.617 231.896 181.631C231.873 181.644 231.854 181.662 231.838 181.683C231.822 181.705 231.81 181.729 231.804 181.755C231.797 181.78 231.796 181.807 231.8 181.833L231.842 182.133C231.849 182.181 231.874 182.224 231.91 182.256C231.947 182.288 231.994 182.305 232.042 182.305ZM231.902 181.304H231.932C231.985 181.296 232.032 181.267 232.064 181.224C232.096 181.181 232.11 181.127 232.102 181.074L232.058 180.775C232.05 180.722 232.021 180.674 231.978 180.642C231.935 180.61 231.882 180.597 231.829 180.605C231.776 180.613 231.728 180.641 231.696 180.684C231.664 180.727 231.651 180.781 231.659 180.834L231.703 181.133C231.71 181.18 231.733 181.223 231.769 181.254C231.804 181.285 231.849 181.303 231.897 181.304H231.902ZM231.752 180.306C231.763 180.307 231.773 180.307 231.783 180.306C231.836 180.298 231.883 180.269 231.915 180.226C231.946 180.183 231.959 180.129 231.951 180.076L231.905 179.777C231.894 179.727 231.864 179.683 231.822 179.654C231.78 179.625 231.728 179.613 231.677 179.621C231.627 179.629 231.581 179.656 231.549 179.696C231.518 179.736 231.503 179.787 231.507 179.838L231.554 180.138C231.561 180.183 231.584 180.224 231.617 180.254C231.651 180.285 231.694 180.303 231.74 180.306H231.752ZM231.597 179.309H231.629C231.682 179.3 231.729 179.271 231.76 179.228C231.792 179.185 231.805 179.131 231.797 179.078L231.75 178.778C231.741 178.726 231.712 178.678 231.668 178.647C231.625 178.615 231.571 178.603 231.518 178.611C231.465 178.62 231.418 178.649 231.386 178.692C231.355 178.736 231.342 178.79 231.351 178.843L231.398 179.141C231.406 179.187 231.429 179.229 231.465 179.26C231.5 179.29 231.545 179.308 231.591 179.309H231.597ZM231.437 178.315H231.47C231.522 178.306 231.569 178.277 231.601 178.234C231.632 178.191 231.645 178.137 231.636 178.084L231.589 177.786C231.58 177.733 231.551 177.686 231.507 177.654C231.464 177.623 231.41 177.61 231.357 177.619C231.304 177.627 231.257 177.656 231.225 177.7C231.194 177.743 231.181 177.797 231.19 177.85L231.239 178.148C231.247 178.194 231.271 178.236 231.306 178.266C231.341 178.296 231.385 178.314 231.432 178.315H231.437ZM231.274 177.322H231.307C231.333 177.318 231.358 177.309 231.381 177.295C231.403 177.281 231.423 177.262 231.438 177.241C231.454 177.219 231.465 177.195 231.471 177.169C231.476 177.143 231.477 177.116 231.472 177.09L231.423 176.793C231.419 176.767 231.409 176.742 231.395 176.72C231.381 176.697 231.363 176.678 231.341 176.662C231.32 176.647 231.295 176.636 231.27 176.63C231.244 176.624 231.217 176.624 231.191 176.628C231.165 176.632 231.14 176.642 231.117 176.656C231.095 176.67 231.075 176.688 231.06 176.71C231.044 176.731 231.033 176.756 231.028 176.782C231.022 176.808 231.021 176.834 231.026 176.86L231.075 177.157C231.083 177.203 231.107 177.244 231.142 177.274C231.177 177.304 231.222 177.321 231.268 177.322H231.274ZM231.106 176.333H231.141C231.167 176.328 231.192 176.318 231.214 176.304C231.236 176.29 231.256 176.271 231.271 176.25C231.286 176.228 231.297 176.203 231.303 176.178C231.308 176.152 231.309 176.125 231.304 176.099L231.254 175.801C231.245 175.748 231.215 175.701 231.171 175.67C231.128 175.639 231.074 175.627 231.021 175.636C230.968 175.645 230.921 175.675 230.89 175.719C230.859 175.762 230.847 175.817 230.856 175.869L230.907 176.167C230.915 176.213 230.939 176.254 230.974 176.284C231.009 176.314 231.054 176.331 231.1 176.333H231.106ZM230.933 175.339H230.968C231.021 175.329 231.068 175.299 231.098 175.255C231.129 175.212 231.141 175.158 231.132 175.105L231.079 174.807C231.076 174.779 231.067 174.753 231.053 174.73C231.039 174.706 231.021 174.685 230.998 174.669C230.976 174.653 230.951 174.641 230.925 174.635C230.898 174.629 230.87 174.628 230.843 174.633C230.816 174.638 230.79 174.648 230.768 174.663C230.745 174.678 230.725 174.698 230.71 174.721C230.695 174.744 230.685 174.77 230.68 174.797C230.676 174.824 230.676 174.851 230.683 174.878L230.735 175.175C230.743 175.22 230.767 175.262 230.802 175.292C230.837 175.322 230.881 175.339 230.928 175.34L230.933 175.339ZM230.756 174.346H230.792C230.844 174.336 230.891 174.307 230.921 174.263C230.952 174.219 230.964 174.165 230.954 174.112L230.901 173.814C230.891 173.762 230.861 173.715 230.817 173.685C230.773 173.655 230.719 173.643 230.666 173.652C230.613 173.661 230.567 173.691 230.536 173.735C230.506 173.779 230.494 173.833 230.504 173.885L230.558 174.184C230.567 174.229 230.591 174.269 230.625 174.299C230.66 174.328 230.704 174.345 230.75 174.346H230.756ZM230.575 173.355C230.587 173.356 230.599 173.356 230.611 173.355C230.638 173.35 230.662 173.34 230.685 173.326C230.707 173.311 230.726 173.293 230.741 173.271C230.757 173.249 230.767 173.225 230.773 173.199C230.778 173.173 230.779 173.146 230.774 173.12L230.718 172.823C230.706 172.772 230.676 172.728 230.632 172.699C230.589 172.671 230.536 172.66 230.485 172.669C230.434 172.679 230.388 172.708 230.358 172.75C230.327 172.792 230.314 172.844 230.322 172.896L230.378 173.194C230.386 173.238 230.41 173.279 230.445 173.308C230.48 173.337 230.524 173.354 230.569 173.355H230.575ZM230.39 172.364H230.428C230.48 172.353 230.527 172.323 230.557 172.279C230.587 172.235 230.598 172.181 230.589 172.128L230.533 171.83C230.523 171.778 230.492 171.731 230.448 171.701C230.404 171.671 230.35 171.66 230.297 171.67C230.245 171.68 230.198 171.71 230.168 171.755C230.138 171.799 230.127 171.853 230.137 171.906L230.193 172.203C230.202 172.247 230.226 172.287 230.261 172.317C230.295 172.346 230.339 172.362 230.385 172.364H230.39ZM230.201 171.372H230.24C230.266 171.368 230.291 171.358 230.313 171.343C230.335 171.329 230.354 171.31 230.369 171.288C230.384 171.266 230.394 171.242 230.4 171.216C230.405 171.19 230.405 171.163 230.4 171.137L230.343 170.84C230.338 170.814 230.328 170.79 230.313 170.767C230.298 170.745 230.28 170.726 230.258 170.711C230.236 170.697 230.211 170.686 230.185 170.681C230.159 170.675 230.133 170.675 230.107 170.68C230.081 170.685 230.056 170.695 230.034 170.71C230.012 170.724 229.993 170.743 229.978 170.765C229.963 170.787 229.952 170.811 229.947 170.837C229.942 170.863 229.941 170.89 229.946 170.916L230.004 171.213C230.013 171.258 230.038 171.298 230.074 171.327C230.109 171.356 230.154 171.372 230.2 171.372H230.201ZM230.009 170.383C230.022 170.384 230.036 170.384 230.049 170.383C230.075 170.378 230.099 170.367 230.121 170.353C230.144 170.338 230.163 170.319 230.177 170.297C230.192 170.275 230.203 170.251 230.208 170.225C230.213 170.199 230.213 170.172 230.208 170.146L230.149 169.849C230.139 169.797 230.108 169.75 230.064 169.721C230.019 169.691 229.965 169.68 229.912 169.69C229.86 169.701 229.813 169.732 229.783 169.776C229.754 169.821 229.743 169.875 229.753 169.928L229.812 170.224C229.822 170.268 229.846 170.308 229.881 170.337C229.915 170.365 229.959 170.381 230.004 170.383H230.009ZM229.813 169.393H229.854C229.906 169.382 229.952 169.351 229.982 169.306C230.012 169.262 230.022 169.207 230.012 169.155L229.952 168.858C229.948 168.831 229.938 168.805 229.924 168.782C229.909 168.759 229.89 168.739 229.868 168.724C229.846 168.708 229.82 168.697 229.794 168.692C229.767 168.686 229.74 168.686 229.713 168.691C229.686 168.697 229.661 168.707 229.638 168.723C229.616 168.738 229.597 168.758 229.582 168.781C229.568 168.804 229.558 168.83 229.554 168.857C229.549 168.884 229.551 168.911 229.557 168.938L229.616 169.235C229.626 169.279 229.65 169.318 229.685 169.347C229.719 169.375 229.763 169.392 229.808 169.393H229.813ZM229.615 168.404H229.655C229.681 168.399 229.706 168.389 229.728 168.375C229.75 168.36 229.769 168.341 229.783 168.319C229.798 168.297 229.808 168.272 229.813 168.246C229.818 168.22 229.817 168.194 229.812 168.168L229.752 167.871C229.739 167.821 229.708 167.777 229.664 167.749C229.62 167.722 229.567 167.712 229.516 167.722C229.465 167.733 229.42 167.762 229.391 167.805C229.361 167.847 229.349 167.9 229.357 167.951L229.417 168.248C229.427 168.291 229.451 168.331 229.486 168.359C229.521 168.387 229.564 168.403 229.609 168.404H229.615ZM229.412 167.424H229.454C229.506 167.413 229.551 167.382 229.58 167.337C229.609 167.293 229.62 167.239 229.609 167.186L229.547 166.89C229.542 166.864 229.532 166.839 229.517 166.817C229.502 166.796 229.483 166.777 229.461 166.762C229.439 166.748 229.414 166.738 229.388 166.733C229.363 166.728 229.336 166.728 229.31 166.734C229.284 166.739 229.26 166.749 229.238 166.764C229.216 166.779 229.197 166.798 229.183 166.82C229.168 166.842 229.158 166.867 229.153 166.892C229.148 166.918 229.149 166.945 229.154 166.971L229.214 167.268C229.225 167.31 229.25 167.348 229.285 167.375C229.32 167.402 229.362 167.417 229.406 167.417L229.412 167.424ZM229.206 166.437H229.248C229.274 166.432 229.298 166.421 229.32 166.406C229.342 166.391 229.361 166.372 229.375 166.35C229.39 166.328 229.399 166.303 229.404 166.277C229.409 166.251 229.409 166.224 229.403 166.198L229.342 165.901C229.33 165.849 229.299 165.803 229.254 165.774C229.209 165.745 229.154 165.735 229.102 165.746C229.076 165.751 229.052 165.762 229.03 165.777C229.008 165.792 228.989 165.811 228.975 165.833C228.96 165.856 228.95 165.88 228.946 165.906C228.941 165.933 228.941 165.959 228.947 165.985L229.008 166.281C229.02 166.323 229.045 166.36 229.079 166.387C229.114 166.414 229.156 166.43 229.2 166.43L229.206 166.437ZM228.997 165.457H229.039C229.091 165.446 229.137 165.414 229.166 165.37C229.195 165.325 229.205 165.27 229.195 165.218L229.13 164.921C229.116 164.872 229.084 164.829 229.04 164.802C228.996 164.776 228.943 164.767 228.893 164.778C228.843 164.789 228.799 164.819 228.769 164.861C228.74 164.904 228.729 164.956 228.737 165.007L228.8 165.302C228.813 165.343 228.838 165.379 228.873 165.404C228.907 165.43 228.949 165.443 228.992 165.443L228.997 165.457ZM228.784 164.477C228.799 164.479 228.813 164.479 228.828 164.477C228.854 164.472 228.878 164.461 228.9 164.446C228.922 164.431 228.941 164.411 228.955 164.389C228.969 164.367 228.979 164.342 228.984 164.316C228.988 164.289 228.988 164.263 228.982 164.237L228.917 163.941C228.904 163.892 228.871 163.849 228.827 163.822C228.783 163.796 228.731 163.787 228.68 163.798C228.63 163.809 228.586 163.839 228.557 163.881C228.528 163.924 228.516 163.976 228.524 164.027L228.588 164.322C228.602 164.362 228.628 164.396 228.662 164.421C228.696 164.445 228.737 164.458 228.779 164.458L228.784 164.477ZM228.569 163.497C228.583 163.499 228.598 163.499 228.612 163.497C228.638 163.492 228.663 163.481 228.685 163.466C228.706 163.451 228.725 163.431 228.739 163.409C228.754 163.387 228.763 163.362 228.768 163.336C228.773 163.309 228.772 163.283 228.766 163.257L228.7 162.961C228.687 162.911 228.655 162.868 228.61 162.841C228.566 162.813 228.513 162.805 228.462 162.816C228.411 162.827 228.367 162.857 228.338 162.901C228.309 162.944 228.298 162.997 228.307 163.048L228.373 163.343C228.388 163.382 228.414 163.415 228.448 163.438C228.482 163.461 228.522 163.473 228.563 163.472L228.569 163.497ZM228.35 162.517C228.365 162.519 228.38 162.519 228.395 162.517C228.447 162.506 228.492 162.474 228.521 162.429C228.549 162.384 228.559 162.33 228.548 162.278L228.482 161.983C228.476 161.956 228.466 161.932 228.451 161.91C228.436 161.888 228.416 161.869 228.394 161.855C228.371 161.84 228.346 161.83 228.32 161.826C228.294 161.821 228.267 161.822 228.241 161.827C228.215 161.833 228.19 161.844 228.168 161.86C228.146 161.875 228.128 161.895 228.114 161.917C228.1 161.94 228.09 161.965 228.086 161.992C228.081 162.018 228.082 162.045 228.089 162.071L228.154 162.365C228.17 162.402 228.197 162.434 228.231 162.456C228.265 162.478 228.304 162.489 228.345 162.488L228.35 162.517ZM228.129 161.537H228.174C228.2 161.531 228.224 161.52 228.246 161.505C228.267 161.49 228.286 161.47 228.3 161.448C228.314 161.425 228.323 161.4 228.328 161.374C228.332 161.348 228.331 161.321 228.325 161.295L228.259 161C228.253 160.974 228.243 160.95 228.227 160.928C228.212 160.906 228.193 160.888 228.17 160.874C228.148 160.86 228.123 160.85 228.097 160.846C228.07 160.841 228.044 160.842 228.018 160.848C227.992 160.854 227.968 160.865 227.946 160.88C227.924 160.895 227.906 160.915 227.892 160.937C227.878 160.96 227.868 160.985 227.864 161.011C227.859 161.037 227.86 161.064 227.866 161.089L227.933 161.385C227.949 161.421 227.976 161.452 228.01 161.474C228.044 161.495 228.084 161.505 228.124 161.504L228.129 161.537ZM227.905 160.557C227.92 160.559 227.935 160.559 227.95 160.557C228.002 160.545 228.047 160.513 228.075 160.468C228.104 160.423 228.113 160.369 228.101 160.317L228.033 160.021C228.028 159.994 228.018 159.968 228.003 159.945C227.988 159.922 227.969 159.902 227.946 159.887C227.923 159.872 227.897 159.861 227.87 159.856C227.843 159.851 227.815 159.852 227.788 159.858C227.761 159.864 227.736 159.876 227.714 159.892C227.692 159.909 227.673 159.929 227.659 159.953C227.646 159.977 227.637 160.003 227.634 160.031C227.63 160.058 227.633 160.086 227.641 160.112L227.708 160.406C227.725 160.442 227.752 160.472 227.786 160.492C227.821 160.513 227.86 160.523 227.9 160.521L227.905 160.557ZM227.677 159.577C227.692 159.579 227.708 159.579 227.723 159.577C227.775 159.565 227.82 159.533 227.848 159.487C227.876 159.442 227.885 159.387 227.873 159.335L227.804 159.041C227.8 159.014 227.79 158.988 227.775 158.965C227.76 158.942 227.74 158.922 227.717 158.907C227.695 158.892 227.669 158.881 227.642 158.876C227.615 158.871 227.587 158.872 227.56 158.878C227.533 158.884 227.508 158.896 227.486 158.912C227.464 158.929 227.445 158.949 227.431 158.973C227.417 158.997 227.409 159.023 227.405 159.051C227.402 159.078 227.405 159.106 227.412 159.132L227.481 159.428C227.499 159.463 227.526 159.492 227.56 159.511C227.594 159.531 227.632 159.54 227.671 159.538L227.677 159.577ZM227.446 158.597C227.462 158.599 227.478 158.599 227.494 158.597C227.546 158.585 227.591 158.552 227.619 158.506C227.647 158.461 227.656 158.406 227.643 158.354L227.573 158.06C227.568 158.033 227.557 158.009 227.542 157.986C227.526 157.964 227.507 157.946 227.484 157.931C227.461 157.917 227.436 157.907 227.409 157.903C227.383 157.898 227.355 157.899 227.329 157.906C227.303 157.912 227.278 157.923 227.257 157.939C227.235 157.955 227.217 157.975 227.203 157.998C227.189 158.022 227.18 158.047 227.176 158.074C227.173 158.1 227.174 158.128 227.181 158.154L227.25 158.448C227.268 158.482 227.295 158.511 227.329 158.53C227.363 158.55 227.402 158.559 227.44 158.557L227.446 158.597ZM227.214 157.617C227.229 157.619 227.244 157.619 227.26 157.617C227.312 157.604 227.356 157.572 227.384 157.526C227.412 157.481 227.421 157.426 227.41 157.374L227.338 157.08C227.325 157.029 227.292 156.986 227.247 156.959C227.201 156.932 227.148 156.923 227.096 156.936C227.045 156.948 227.001 156.98 226.973 157.024C226.945 157.069 226.935 157.122 226.946 157.174L227.018 157.468C227.035 157.502 227.063 157.531 227.097 157.55C227.131 157.569 227.169 157.578 227.208 157.575L227.214 157.617ZM226.977 156.637C226.993 156.639 227.009 156.639 227.025 156.637C227.076 156.624 227.121 156.592 227.149 156.546C227.177 156.5 227.185 156.446 227.173 156.394L227.1 156.1C227.096 156.072 227.086 156.046 227.07 156.023C227.055 156 227.036 155.98 227.012 155.964C226.989 155.949 226.963 155.939 226.936 155.934C226.909 155.929 226.88 155.93 226.854 155.937C226.827 155.943 226.801 155.955 226.779 155.972C226.757 155.989 226.739 156.01 226.725 156.034C226.712 156.059 226.703 156.085 226.701 156.113C226.698 156.141 226.701 156.169 226.71 156.195L226.781 156.489C226.799 156.523 226.827 156.551 226.861 156.569C226.895 156.588 226.933 156.597 226.971 156.594L226.977 156.637ZM226.736 155.657C226.752 155.659 226.769 155.659 226.785 155.657C226.836 155.643 226.878 155.61 226.905 155.564C226.931 155.519 226.938 155.465 226.925 155.414L226.854 155.12C226.841 155.068 226.808 155.023 226.762 154.995C226.74 154.982 226.714 154.973 226.688 154.969C226.662 154.965 226.635 154.966 226.609 154.972C226.584 154.978 226.559 154.99 226.538 155.006C226.517 155.021 226.499 155.041 226.485 155.064C226.471 155.086 226.462 155.112 226.458 155.138C226.454 155.164 226.455 155.191 226.462 155.216L226.535 155.51C226.554 155.545 226.582 155.573 226.617 155.592C226.652 155.61 226.691 155.618 226.731 155.614L226.736 155.657ZM226.494 154.677C226.51 154.679 226.527 154.679 226.543 154.677C226.593 154.663 226.636 154.63 226.662 154.584C226.689 154.539 226.696 154.485 226.683 154.434L226.609 154.14C226.594 154.089 226.561 154.047 226.515 154.02C226.47 153.994 226.416 153.987 226.365 154C226.315 154.015 226.272 154.048 226.246 154.094C226.22 154.14 226.212 154.194 226.225 154.245L226.299 154.539C226.319 154.571 226.347 154.597 226.38 154.614C226.414 154.631 226.451 154.638 226.488 154.635L226.494 154.677ZM226.248 153.697C226.264 153.699 226.281 153.699 226.298 153.697C226.349 153.683 226.392 153.65 226.418 153.604C226.445 153.558 226.452 153.503 226.438 153.452L226.364 153.16C226.358 153.134 226.347 153.109 226.331 153.087C226.315 153.065 226.295 153.046 226.272 153.032C226.25 153.018 226.224 153.009 226.197 153.005C226.171 153.001 226.144 153.002 226.117 153.009C226.091 153.015 226.067 153.027 226.045 153.044C226.024 153.06 226.006 153.08 225.992 153.104C225.979 153.127 225.97 153.153 225.967 153.179C225.964 153.206 225.966 153.233 225.973 153.259L226.047 153.552C226.066 153.586 226.094 153.615 226.129 153.633C226.164 153.652 226.203 153.66 226.242 153.657L226.248 153.697ZM226 152.717C226.016 152.717 226.033 152.715 226.049 152.71C226.1 152.696 226.143 152.663 226.169 152.617C226.196 152.571 226.203 152.516 226.189 152.465L226.113 152.173C226.099 152.122 226.065 152.079 226.02 152.053C225.974 152.027 225.92 152.02 225.87 152.032C225.819 152.045 225.775 152.078 225.747 152.122C225.72 152.167 225.711 152.221 225.723 152.272L225.798 152.566C225.816 152.603 225.845 152.634 225.881 152.654C225.917 152.674 225.959 152.682 226 152.678V152.717ZM225.746 151.737C225.763 151.737 225.78 151.735 225.797 151.73C225.848 151.716 225.891 151.682 225.917 151.636C225.944 151.59 225.951 151.535 225.937 151.484L225.861 151.191C225.848 151.14 225.814 151.095 225.768 151.068C225.722 151.041 225.667 151.034 225.615 151.047C225.563 151.061 225.519 151.094 225.492 151.141C225.465 151.187 225.457 151.242 225.471 151.294L225.548 151.586C225.565 151.622 225.592 151.653 225.627 151.673C225.661 151.694 225.701 151.703 225.741 151.701L225.746 151.737ZM225.489 150.757C225.506 150.757 225.524 150.755 225.541 150.75C225.591 150.736 225.635 150.702 225.661 150.656C225.687 150.61 225.694 150.555 225.681 150.504L225.602 150.21C225.596 150.184 225.584 150.159 225.568 150.138C225.552 150.116 225.532 150.098 225.509 150.085C225.486 150.071 225.46 150.062 225.433 150.059C225.407 150.055 225.38 150.057 225.354 150.064C225.328 150.071 225.304 150.083 225.283 150.099C225.262 150.116 225.244 150.136 225.231 150.16C225.218 150.183 225.209 150.209 225.206 150.236C225.203 150.262 225.205 150.289 225.213 150.315L225.29 150.606C225.307 150.643 225.334 150.673 225.369 150.694C225.403 150.715 225.443 150.726 225.483 150.724L225.489 150.757ZM225.227 149.777C225.245 149.78 225.263 149.78 225.28 149.777C225.331 149.763 225.375 149.728 225.401 149.682C225.427 149.636 225.434 149.581 225.42 149.53L225.339 149.234C225.332 149.209 225.32 149.185 225.304 149.164C225.287 149.143 225.267 149.125 225.244 149.112C225.221 149.099 225.195 149.091 225.169 149.088C225.143 149.084 225.116 149.086 225.09 149.094C225.065 149.101 225.041 149.113 225.02 149.129C224.999 149.145 224.982 149.166 224.969 149.189C224.956 149.212 224.947 149.237 224.944 149.263C224.941 149.29 224.943 149.316 224.95 149.342L225.031 149.636C225.049 149.671 225.076 149.7 225.11 149.719C225.144 149.738 225.182 149.748 225.221 149.745L225.227 149.777Z" fill="white"/>
<path d="M135.763 151.723C139.251 154.428 143.514 155.945 147.928 156.052C152.341 156.16 156.672 154.851 160.288 152.318L161.138 151.723C161.558 152.23 169.693 160.693 174.289 171.132C174.414 171.416 174.466 171.727 174.444 172.037C174.421 172.347 174.323 172.646 174.158 172.91C173.356 174.205 171.678 176.562 169.604 177.518C169.231 177.688 168.814 177.734 168.414 177.649C168.013 177.564 167.651 177.353 167.379 177.047C165.839 175.322 162.459 171.447 160.877 169.067C160.877 169.067 163.638 184.303 164.377 190.538C164.484 191.439 164.237 192.346 163.689 193.068C163.141 193.79 162.333 194.271 161.437 194.409C152.37 195.847 143.624 196.056 135.333 194.51C134.459 194.349 133.679 193.86 133.151 193.144C132.624 192.429 132.389 191.539 132.494 190.656C133.216 184.443 136.012 169.067 136.012 169.067C134.43 171.447 131.046 175.315 129.512 177.047C129.24 177.353 128.878 177.564 128.477 177.649C128.077 177.734 127.66 177.688 127.287 177.518C125.211 176.562 123.534 174.205 122.732 172.91C122.567 172.646 122.469 172.347 122.447 172.037C122.424 171.727 122.477 171.416 122.601 171.132C127.209 160.693 135.341 152.23 135.763 151.723Z" fill="white"/>
<path d="M131.728 156.45C133.92 153.688 135.579 151.945 135.763 151.723C139.251 154.428 143.514 155.945 147.928 156.052C152.341 156.16 156.672 154.851 160.288 152.318L161.138 151.723C161.306 151.925 162.69 153.382 164.587 155.72C160.694 158.578 149.486 164.603 131.728 156.45Z" fill="#19D791"/>
<path d="M132.817 188.275C133.171 185.767 133.678 182.623 134.185 179.607C145.96 181.471 155.484 181.125 162.774 179.977C163.28 182.995 163.778 186.11 164.121 188.553C156.42 189.949 146.001 190.489 132.817 188.275Z" fill="#19D791"/>
<path d="M135.42 172.414C135.777 170.392 136.016 169.074 136.016 169.074C135.448 169.926 134.647 170.972 133.776 172.043C130.324 171.223 126.916 170.23 123.563 169.068C124.766 166.66 126.117 164.33 127.61 162.09C149.893 170.875 164.151 165.771 169.727 162.802C171.28 165.184 172.665 167.671 173.874 170.245C171.751 171.204 168.485 172.41 164.099 173.264C162.874 171.794 161.647 170.25 160.863 169.074C160.863 169.074 161.205 170.961 161.681 173.678C155.066 174.665 146.289 174.78 135.42 172.414Z" fill="#19D791"/>
<path d="M97.8019 165.666L110.314 186.893C110.797 187.707 111.011 188.653 110.926 189.596C110.841 190.539 110.461 191.432 109.841 192.147C107.645 194.667 103.699 198.009 98.3605 197.812C89.8527 197.497 87.6463 192.847 78.1123 196.472C68.5783 200.096 63.8323 191.454 60.4723 191.35C60.0985 191.339 59.7723 191.331 59.4769 191.327C59.2857 191.323 59.099 191.268 58.9366 191.166C58.7742 191.065 58.6421 190.922 58.5542 190.753C58.4663 190.583 58.4259 190.392 58.4373 190.201C58.4486 190.01 58.5113 189.826 58.6187 189.668L74.4023 166.38L97.8019 165.666Z" fill="#19D791"/>
<path d="M97.8018 165.12L98.1714 164.213L103.475 151.175C103.475 151.175 98.1966 149.363 95.7536 149.363C95.7536 149.363 85.7478 152.671 77.2386 149.363C77.2386 149.363 71.6386 150.071 69.5176 151.49L74.6388 165.435L97.8018 165.12Z" fill="#19D791"/>
<path d="M98.6084 167.034L98.3536 164.011C98.3536 164.011 84.8226 166.059 74.177 164.169L73.9306 167.249C73.9306 167.249 83.5794 171.396 98.6084 167.034Z" fill="#00C079"/>
<path d="M2.03043 105.605C1.91824 105.323 1.86415 105.021 1.87136 104.718C1.87858 104.414 1.94697 104.116 2.07244 103.839C5.85243 95.5204 19.3918 65.7382 19.8888 65.384C20.4684 64.964 38.6628 49.1622 38.6628 49.1622C42.0143 46.2516 43.0784 49.0698 43.0784 49.0698L50.0195 77.9504L32.0814 116.222C31.8374 116.744 31.4027 117.151 30.8668 117.362C30.331 117.572 29.735 117.568 29.2016 117.352L3.27505 106.852C2.99442 106.738 2.73954 106.569 2.5257 106.355C2.31186 106.141 2.14341 105.886 2.03043 105.605ZM40.8635 59.5964C41.3787 59.2291 41.7734 58.7173 41.9977 58.1257C42.222 57.5341 42.2658 56.8892 42.1236 56.2727C41.9814 55.6562 41.6596 55.0957 41.1989 54.6621C40.7381 54.2285 40.1591 53.9412 39.5351 53.8366C38.9111 53.7321 38.2701 53.8149 37.6932 54.0747C37.1162 54.3344 36.6293 54.7594 36.2939 55.2959C35.9585 55.8324 35.7897 56.4563 35.8089 57.0887C35.8281 57.7211 36.0344 58.3337 36.4018 58.8488C36.6455 59.191 36.9543 59.4818 37.3105 59.7046C37.6667 59.9274 38.0634 60.0778 38.4777 60.1473C38.8921 60.2167 39.3161 60.2038 39.7255 60.1093C40.1348 60.0147 40.5216 59.8405 40.8635 59.5964Z" fill="#5FE0BB"/>
<path d="M31.3141 85.2766C28.8571 89.541 29.4549 92.7456 31.4947 93.9216C33.5821 95.1228 36.5347 93.9216 38.7972 90.0422C41.0036 86.2132 40.8272 82.7538 38.5339 81.4336C36.1721 80.0728 33.4113 81.6338 31.3141 85.2766ZM26.5541 102.394L29.9561 76.4944L28.3517 75.5704L24.9483 101.47L26.5541 102.394ZM36.7195 88.68C35.3979 91.0292 33.7921 92.3844 32.6693 91.7376C31.5465 91.0908 31.9273 89.1546 33.3441 86.6976C34.6349 84.4576 36.1329 82.9176 37.3481 83.6176C38.4892 84.2686 38.023 86.4036 36.7195 88.68ZM16.2052 87.7714C13.7678 92.005 14.3236 95.2278 16.3886 96.4164C18.4536 97.605 21.4287 96.4164 23.6855 92.4964C25.8723 88.6982 25.7141 85.208 23.4447 83.9004C21.0773 82.5326 18.2982 84.1244 16.1996 87.7672L16.2052 87.7714ZM21.5994 91.1664C20.296 93.4834 18.672 94.8708 17.5492 94.224C16.4026 93.5632 16.8072 91.641 18.224 89.184C19.533 86.9118 21.0128 85.404 22.2281 86.104C23.3761 86.7578 22.9099 88.8942 21.5994 91.1664Z" fill="white"/>
<path d="M40.199 57.5846C40.4602 57.555 40.7069 57.4489 40.9079 57.2795C41.1089 57.1101 41.2554 56.885 41.3288 56.6326C41.4226 56.312 43.7578 48.7296 52.8885 46.1466C53.2243 46.0467 53.5073 45.8186 53.6762 45.5117C53.8451 45.2047 53.8864 44.8436 53.791 44.5065C53.6957 44.1694 53.4715 43.8833 53.1668 43.7103C52.8622 43.5372 52.5017 43.4911 52.1633 43.5818C41.5654 46.5792 38.8774 55.5112 38.7682 55.8906C38.7081 56.1013 38.7007 56.3235 38.7468 56.5377C38.7928 56.7519 38.8909 56.9515 39.0322 57.1189C39.1736 57.2862 39.354 57.4163 39.5574 57.4975C39.7609 57.5787 39.9812 57.6086 40.199 57.5846Z" fill="#F1F1F1"/>
<path d="M79.5481 111.314L94.2257 115.2L96.4545 115.788C96.4545 115.788 96.7345 115.399 97.2721 114.668C97.5283 114.299 97.8811 113.862 98.2885 113.345C98.6959 112.829 99.1873 112.243 99.7431 111.59C101.113 110.009 102.57 108.506 104.106 107.086C106.16 105.189 108.343 103.436 110.639 101.84C113.46 99.8884 116.421 98.1495 119.5 96.6376C121.18 95.841 122.926 95.0318 124.782 94.3248L125.482 94.0448C125.717 93.958 125.957 93.874 126.192 93.7872L127.62 93.2678C128.6 92.957 129.567 92.607 130.577 92.3228C134.763 91.0728 139.046 90.1764 143.383 89.6432C145.623 89.3632 147.907 89.1994 150.209 89.0972L151.941 89.0608C152.221 89.0608 152.526 89.0426 152.803 89.0426L153.643 89.0496H154.483C154.763 89.0496 155.031 89.0496 155.355 89.0664L157.22 89.1406L157.455 89.149L157.58 89.093L157.619 89.0342H157.647L158.045 89.1182L158.914 89.2078C159.494 89.247 160.076 89.2932 160.652 89.3576L162.388 89.5312C162.966 89.6054 163.54 89.6824 164.115 89.7538C166.414 90.0646 168.695 90.4538 170.926 90.955L171.766 91.1384L172.595 91.3442C173.145 91.4842 173.7 91.6144 174.246 91.7642C175.333 92.0722 176.423 92.362 177.482 92.7106C178.552 93.0284 179.582 93.4106 180.631 93.7648C181.146 93.9538 181.653 94.1512 182.161 94.3444L182.924 94.6342L183.668 94.945C185.671 95.7486 187.565 96.6586 189.401 97.5868C190.306 98.067 191.208 98.5332 192.061 99.0372C192.913 99.5412 193.766 100.044 194.596 100.546C197.644 102.456 200.536 104.602 203.247 106.965C205.489 108.921 207.587 111.037 209.523 113.296C210.983 115.01 212.347 116.805 213.607 118.671C214.116 119.445 214.587 120.138 214.937 120.747C215.287 121.356 215.624 121.867 215.858 122.316C215.984 122.546 216.095 122.747 216.191 122.918C216.391 123.282 216.869 123.478 217.332 123.401C217.396 123.392 217.459 123.378 217.521 123.358L217.599 123.331C218.115 123.162 218.378 122.689 218.196 122.256C218.123 122.077 218.035 121.87 217.935 121.632C217.756 121.18 217.482 120.611 217.168 119.952C216.855 119.292 216.468 118.528 216.037 117.685C214.953 115.649 213.752 113.678 212.44 111.78C210.677 109.25 208.727 106.855 206.607 104.616C204.005 101.87 201.182 99.3418 198.167 97.0562C197.34 96.443 196.511 95.813 195.625 95.218C194.76 94.602 193.843 94.0182 192.917 93.4246C191.048 92.2626 189.094 91.1104 187.005 90.0576C186.746 89.9246 186.489 89.7888 186.227 89.6558L185.43 89.2708C184.897 89.016 184.363 88.7528 183.822 88.5022C182.724 88.0206 181.626 87.5152 180.483 87.07C179.363 86.5954 178.189 86.1768 177.02 85.7428C176.432 85.5342 175.836 85.3396 175.238 85.1366L174.341 84.8384L173.432 84.5584C171.007 83.7982 168.501 83.1682 165.956 82.6166L164.038 82.2218L162.103 81.8788C161.457 81.7584 160.804 81.6674 160.153 81.5736L159.173 81.4336L158.686 81.3608L158.134 81.2992L156.285 81.0808C155.992 81.0402 155.641 81.0122 155.305 80.9828L154.282 80.8946L153.258 80.8092C152.915 80.7798 152.593 80.77 152.259 80.749L150.271 80.637C147.611 80.5446 144.963 80.5362 142.326 80.6524C137.162 80.8781 132.026 81.5338 126.972 82.6124C125.738 82.8574 124.54 83.1724 123.332 83.4524L121.564 83.9326L120.687 84.1748L119.822 84.438C117.511 85.11 115.314 85.908 113.183 86.7088C109.24 88.2509 105.413 90.0756 101.733 92.1688C98.6824 93.9097 95.751 95.8506 92.9573 97.9788C90.8445 99.5929 88.8191 101.318 86.8897 103.148C86.0987 103.906 85.3917 104.584 84.8149 105.2C84.2381 105.816 83.7215 106.32 83.3407 106.764C82.5665 107.623 79.5481 111.314 79.5481 111.314Z" fill="#19D791"/>
<path d="M73.2975 110.708L80.9134 138.43L109.024 111.709L73.2975 110.708Z" fill="#19D791"/>
<path d="M198.753 225.345L186.497 221.4L184.635 220.804L183.868 221.716C183.626 222.022 183.298 222.377 182.918 222.8C182.537 223.223 182.078 223.7 181.567 224.232C180.298 225.52 178.96 226.738 177.56 227.882C175.687 229.408 173.714 230.807 171.653 232.068C169.129 233.608 166.496 234.961 163.775 236.117C162.29 236.723 160.754 237.336 159.127 237.858L158.52 238.06C158.314 238.123 158.1 238.185 157.9 238.249C157.485 238.373 157.068 238.5 156.649 238.63C155.8 238.852 154.948 239.107 154.071 239.306C150.432 240.19 146.726 240.768 142.991 241.035C141.065 241.175 139.109 241.217 137.142 241.206L135.663 241.162C135.418 241.153 135.164 241.151 134.928 241.14L134.213 241.098L133.499 241.059C133.261 241.043 133.033 241.035 132.757 241.006L131.172 240.866L130.973 240.847L130.861 240.898L130.822 240.952H130.8L130.468 240.856L129.734 240.74C129.243 240.681 128.754 240.615 128.263 240.534L126.796 240.311C126.309 240.222 125.824 240.132 125.338 240.045C123.399 239.683 121.481 239.256 119.612 238.728L118.912 238.535L118.219 238.325C117.76 238.185 117.295 238.045 116.84 237.905C115.933 237.597 115.02 237.303 114.143 236.96C113.252 236.642 112.392 236.275 111.527 235.925C111.107 235.742 110.687 235.551 110.267 235.365L109.636 235.085L109.023 234.788C107.366 234.017 105.811 233.16 104.306 232.291C103.565 231.843 102.826 231.406 102.128 230.94C101.429 230.473 100.739 230.009 100.064 229.54C97.5903 227.783 95.2625 225.829 93.1033 223.697C89.9537 220.603 87.2347 217.099 85.0197 213.28C84.6347 212.598 84.2833 211.988 84.0187 211.46C83.7541 210.932 83.5049 210.48 83.3327 210.084C83.2403 209.884 83.1591 209.709 83.0877 209.557C82.9393 209.238 82.5459 209.051 82.1469 209.095C82.0916 209.101 82.0369 209.111 81.9831 209.125L81.9145 209.144C81.4651 209.266 81.2145 209.658 81.3377 210.035C81.3895 210.189 81.4511 210.371 81.5197 210.577C81.6443 210.971 81.8417 211.467 82.0671 212.047C82.2925 212.626 82.5697 213.288 82.8861 214.026C83.6808 215.808 84.5793 217.542 85.5769 219.219C86.9175 221.449 88.4269 223.573 90.0919 225.573C92.1337 228.025 94.3773 230.302 96.7993 232.379C97.4657 232.939 98.1321 233.51 98.8489 234.059C99.5657 234.608 100.291 235.159 101.041 235.704C102.559 236.775 104.152 237.84 105.864 238.827C106.076 238.952 106.284 239.079 106.501 239.204C106.718 239.328 106.937 239.446 107.155 239.565C107.595 239.806 108.032 240.054 108.477 240.29C109.381 240.748 110.284 241.227 111.23 241.655C112.16 242.107 113.127 242.515 114.096 242.935C114.583 243.138 115.076 243.33 115.576 243.528L116.321 243.821L117.077 244.101C119.094 244.853 121.189 245.501 123.322 246.078L124.931 246.498L126.558 246.873C127.102 247.005 127.651 247.11 128.2 247.217L129.026 247.383L129.436 247.465L129.902 247.542L131.463 247.808C131.71 247.856 132.008 247.894 132.295 247.934L133.162 248.053L134.027 248.171C134.317 248.21 134.587 248.232 134.867 248.265L136.555 248.447C138.809 248.638 141.07 248.76 143.323 248.777C147.745 248.806 152.161 248.469 156.528 247.769C157.594 247.614 158.636 247.394 159.676 247.209L161.216 246.876L161.979 246.708L162.731 246.52C164.743 246.047 166.665 245.463 168.531 244.872C171.992 243.729 175.367 242.342 178.632 240.721C181.341 239.369 183.96 237.843 186.472 236.152C188.379 234.86 190.217 233.47 191.98 231.988C192.702 231.375 193.349 230.829 193.878 230.329C194.407 229.829 194.882 229.416 195.233 229.061C195.947 228.359 198.753 225.345 198.753 225.345Z" fill="#19D791"/>
<path d="M204.041 226.132L199.315 202.186L173.668 223.734L204.041 226.132Z" fill="url(#paint0_linear_18_5773)"/>
<path d="M204.041 226.132L199.315 202.186L173.668 223.734L204.041 226.132Z" fill="#19D791"/>
<path d="M9.59919 175.873C8.33919 177.224 6.47159 178.393 5.15979 179.118C7.11979 181.537 9.76579 183.961 13.2728 186.332L14.2766 188.584L17.4966 184.731C17.4966 184.731 11.7216 181.859 9.59919 175.873Z" fill="#FFD89D"/>
<path d="M26.8053 248.96C26.8073 248.89 26.8002 248.82 26.7843 248.752C25.7427 244.623 20.574 242.051 20.574 242.051L18.5201 242.218C17.3427 245.858 17.4939 248.088 17.6801 249.078C17.6801 249.106 17.6942 249.132 17.7012 249.16C19.3993 249.309 22.8769 249.408 26.8053 248.96Z" fill="#7B818D"/>
<path d="M17.7026 239.161L18.5692 243.338C18.5944 243.481 18.6645 243.612 18.7695 243.713C18.8745 243.814 19.0088 243.878 19.153 243.898C19.6002 243.943 20.0513 243.936 20.4969 243.877C20.6079 243.855 20.7136 243.812 20.808 243.75C20.9023 243.687 20.9834 243.607 21.0466 243.513C21.1098 243.419 21.1538 243.314 21.1763 243.203C21.1987 243.092 21.1991 242.978 21.1773 242.867L20.5739 239.16L17.7026 239.161Z" fill="#FFD89D"/>
<path d="M44.9478 248.778C44.9342 248.746 44.9178 248.714 44.8988 248.684C43.8025 247.153 41.0081 244.101 35.4879 242.776L32.839 242.694C32.839 242.694 31.6602 244.743 31.6378 248.539C32.2426 248.787 33.413 249.053 35.6755 249.117C39.1713 249.218 43.3195 248.913 44.9478 248.778Z" fill="#7B818D"/>
<path d="M32.3489 238.68C32.3783 238.877 32.7409 241.877 32.8809 243.041C32.8922 243.17 32.9463 243.291 33.0346 243.385C33.123 243.48 33.2404 243.542 33.3681 243.562C33.9728 243.643 34.5863 243.634 35.1882 243.534C35.3622 243.49 35.5161 243.388 35.6241 243.245C35.7321 243.102 35.7878 242.926 35.7818 242.747V238.037L32.3489 238.68Z" fill="#FFD89D"/>
<path d="M30.2245 183.927C30.2245 183.927 36.6127 208.202 36.4965 238.748C36.4956 239.019 36.402 239.281 36.2313 239.491C36.0607 239.701 35.8232 239.846 35.5585 239.902C34.7549 240.07 33.5747 240.272 32.5975 240.244C32.3443 240.235 32.1018 240.139 31.9112 239.973C31.7206 239.806 31.5936 239.578 31.5517 239.328C30.6557 234.075 25.5163 204.488 22.5917 199.684C22.5917 199.684 20.6653 226.037 21.2813 239.709C21.2892 239.873 21.2346 240.033 21.1285 240.158C21.0225 240.283 20.873 240.363 20.7101 240.382C19.9192 240.47 19.1211 240.47 18.3302 240.382C18.1378 240.363 17.9573 240.281 17.8173 240.148C17.6773 240.015 17.5858 239.838 17.5574 239.647C16.919 235.202 13.2482 208.742 13.4036 189.683C13.412 188.608 16.2456 183.934 16.2456 183.934L30.2245 183.927Z" fill="#A8B2BC"/>
<path d="M39.1001 154.55C38.0728 153.261 37.1678 151.879 36.3967 150.422C35.3355 148.418 36.3113 151.72 36.0215 149.456C28.0751 143.716 16.1121 146.624 11.4837 147.208C9.96718 147.401 8.57601 148.149 7.57911 149.308C3.61292 153.897 -5.0895 166.462 5.1529 179.128C6.4647 178.4 8.3267 177.234 9.5923 175.883C8.4583 172.689 8.36589 168.603 10.7403 163.601C10.8213 163.998 10.9227 164.391 11.0441 164.778C14.3173 175.146 14.4923 183.776 14.4839 185.765C14.4837 185.898 14.5238 186.028 14.5988 186.137C14.6738 186.247 14.7801 186.331 14.9039 186.379C19.2117 188.105 27.5039 187.079 30.2871 186.659C30.5315 186.621 30.7511 186.488 30.8978 186.289C31.0445 186.09 31.1063 185.841 31.0697 185.596C29.7047 175.698 36.7159 159.416 38.5681 155.338C38.6976 155.046 38.8777 154.779 39.1001 154.55Z" fill="#2187FF"/>
<path d="M18.94 138.874L18.1097 147.355C18.1097 147.355 22.8824 148.793 26.353 146.344L23.9128 138.635L18.94 138.874Z" fill="#FFD89D"/>
<path d="M24.4725 129.205C24.5873 129.313 29.3193 138.606 29.3193 138.606L23.9559 141.195L18.1628 133.054C18.1628 133.054 22.5504 127.395 24.4725 129.205Z" fill="#FFD89D"/>
<path d="M20.5356 133.279C20.4887 133.401 20.4701 133.533 20.4812 133.663C20.4924 133.793 20.533 133.919 20.6 134.031L23.2796 138.49C23.3173 138.557 23.3644 138.619 23.4196 138.672C23.7374 138.969 24.8196 139.832 25.6694 138.657C26.3876 137.657 27.061 136.747 27.782 136.372C27.8828 136.321 27.9927 136.29 28.1054 136.281C28.2181 136.273 28.3314 136.287 28.4388 136.322C28.5461 136.357 28.6454 136.414 28.7309 136.488C28.8165 136.562 28.8865 136.652 28.937 136.753C29.378 137.627 30.2306 139.413 30.7668 141.093C30.8308 141.297 30.8153 141.519 30.7235 141.712C30.6316 141.906 30.4701 142.058 30.2712 142.137C29.1862 142.577 27.04 143.372 25.1346 143.635C24.9812 143.657 24.8248 143.636 24.6823 143.575C24.5397 143.515 24.4164 143.416 24.3254 143.291C23.5064 142.171 21.1964 139.032 20.4054 138.251C19.6732 137.521 18.3209 137.796 17.7119 137.971C17.598 138.004 17.4785 138.013 17.3609 137.998C17.2433 137.982 17.1302 137.943 17.0287 137.881C16.4113 137.509 15.3333 136.582 16.3189 135.013C16.4346 134.822 16.4717 134.595 16.4223 134.377C16.373 134.16 16.2409 133.971 16.0543 133.849C15.3641 133.396 14.6165 132.544 15.3291 131.164C16.0417 129.784 17.3409 129.642 18.2187 129.75C18.4092 129.776 18.603 129.74 18.7712 129.646C18.9393 129.553 19.0726 129.408 19.1511 129.232C19.1879 129.141 19.248 129.06 19.3253 128.999C19.4026 128.938 19.4946 128.898 19.5921 128.883C19.7012 128.865 19.8055 128.824 19.8988 128.764C19.992 128.705 20.0724 128.627 20.135 128.535C20.1977 128.444 20.2413 128.341 20.2635 128.233C20.2857 128.124 20.2859 128.012 20.264 127.903C20.11 127.112 20.2262 126.083 21.4876 125.393C23.8018 124.121 25.8276 126.194 26.3442 127.944C26.8608 129.694 24.2722 130.93 22.6454 131.137C21.4596 131.293 20.8002 132.598 20.5356 133.279Z" fill="#5B6475"/>
<path d="M21.4165 139.886C21.4165 139.886 20.3875 136.876 19.0701 136.987C17.7527 137.097 16.7153 138.409 18.3477 139.885C20.3791 141.719 21.4165 139.886 21.4165 139.886Z" fill="#FFD89D"/>
<path d="M10.3134 162.815C8.57729 158.064 9.20734 152.327 9.21294 152.269L9.69175 152.324C9.68475 152.38 9.06875 158.008 10.7656 162.65L10.3134 162.815Z" fill="#015FCD"/>
<path d="M22.3533 199.066C22.2998 199.065 22.2479 199.048 22.2056 199.015C22.1634 198.982 22.1331 198.937 22.1195 198.885C21.5903 196.842 17.6241 194.597 17.5835 194.574C17.5278 194.543 17.4868 194.491 17.4696 194.429C17.4524 194.368 17.4604 194.302 17.4918 194.246C17.5232 194.19 17.5754 194.149 17.6369 194.132C17.6985 194.115 17.7644 194.123 17.8201 194.154C17.9909 194.25 22.0047 196.523 22.5801 198.765C22.5881 198.795 22.59 198.827 22.5856 198.858C22.5813 198.889 22.5708 198.919 22.5548 198.947C22.5388 198.974 22.5176 198.998 22.4924 199.017C22.4671 199.036 22.4384 199.049 22.4079 199.057C22.3901 199.062 22.3717 199.065 22.3533 199.066Z" fill="#7B818D"/>
<path d="M55.2349 157.217C46.2483 158.565 40.3949 152.895 36.0283 149.457C30.266 144.915 25.7818 147.124 25.7818 147.124L31.9263 158.852C41.1033 167.504 50.5127 165.583 56.4445 162.772C56.5148 160.848 56.0988 158.937 55.2349 157.217Z" fill="#2187FF"/>
<path d="M67.8658 151.856L64.8852 153.459C61.311 155.636 58.1134 156.785 55.235 157.217C56.1001 158.939 56.5161 160.853 56.4446 162.779C60.2246 160.994 62.5878 158.859 62.5878 158.859C69.34 154.827 67.8658 151.856 67.8658 151.856Z" fill="url(#paint1_linear_18_5773)"/>
<path d="M76.6439 156.056C76.5482 155.741 76.3832 155.452 76.1611 155.21C75.9389 154.968 75.6652 154.778 75.3601 154.656L69.3121 152.224C69.3121 152.224 69.2197 151.449 70.5889 150.921C71.9581 150.393 71.6389 148.861 71.6389 148.861C71.6389 148.861 69.7685 149.714 67.0301 151.068C65.4635 151.842 64.5843 153.208 64.1195 154.236L65.6763 156.284C69.4031 157.404 73.1747 157.618 76.9785 157.173L76.6439 156.056Z" fill="url(#paint2_linear_18_5773)"/>
<path d="M17.7244 249.154C17.762 249.313 17.8426 249.457 17.9572 249.573C18.0718 249.689 18.216 249.77 18.374 249.809C20.7778 250.315 24.5984 249.909 26.2015 249.699C26.3761 249.669 26.5342 249.577 26.6476 249.441C26.761 249.305 26.8222 249.133 26.8203 248.955C22.8918 249.403 19.4142 249.304 17.7244 249.154Z" fill="#7B818D"/>
<path d="M35.6906 249.112C33.4282 249.048 32.2578 248.782 31.653 248.534C31.653 248.759 31.653 248.989 31.653 249.226C31.651 249.341 31.6936 249.452 31.7718 249.537C31.8501 249.621 31.958 249.672 32.073 249.679L44.4924 249.599C44.8886 249.599 45.121 249.137 44.9488 248.773C43.3346 248.908 39.1864 249.213 35.6906 249.112Z" fill="#7B818D"/>
<path d="M73.9084 186.561C73.9084 186.561 69.0911 199.539 61.7649 197.947C61.7649 197.947 61.0103 202.362 62.2437 202.883C62.2437 202.883 73.2322 203.201 74.3242 188.11L73.9084 186.561Z" fill="#FFD89D"/>
<path d="M73.7013 189.603C73.7223 189.828 72.8851 189.983 72.6191 189.025C72.6919 188.605 72.8221 186.785 73.1413 186.505C74.8422 184.995 77.8732 183.299 77.8732 183.299C77.9712 183.427 78.015 183.589 77.9954 183.749C77.9758 183.909 77.8942 184.056 77.7682 184.157L76.2548 185.179C76.413 185.701 76.6426 186.159 76.6748 186.761C76.6903 187.216 76.5298 187.659 76.2268 187.998C75.9258 188.343 75.5268 188.787 75.1558 189.118C74.9659 189.304 74.7363 189.444 74.4843 189.528C74.2323 189.612 73.9646 189.637 73.7013 189.603Z" fill="#FFD89D"/>
<path fill-rule="evenodd" clip-rule="evenodd" d="M61.8362 181.138C61.8362 181.138 59.5094 179.038 62.4998 176.759C65.3096 174.62 67.3635 177.491 66.4325 179.339C66.4169 179.37 66.4086 179.404 66.4081 179.438C66.4077 179.472 66.4151 179.506 66.4298 179.537C66.4446 179.568 66.4662 179.595 66.4932 179.617C66.5201 179.638 66.5515 179.653 66.5851 179.66C66.8301 179.715 67.0429 179.958 66.6551 180.822C66.6389 180.859 66.6328 180.899 66.6375 180.939C66.6422 180.979 66.6574 181.017 66.6817 181.049C67.0261 181.511 68.1741 183.362 64.709 183.644C64.6781 183.647 64.647 183.642 64.6177 183.632C64.5883 183.622 64.5613 183.606 64.5382 183.586L61.8362 181.138Z" fill="#5B6475"/>
<path fill-rule="evenodd" clip-rule="evenodd" d="M49.6174 184.221C49.6174 184.221 49.3948 181.54 47.9599 180.667C46.5249 179.793 43.7403 179.05 42.5727 181.964C42.0127 183.355 42.2003 184.017 42.5461 184.328C42.6933 184.466 42.7877 184.651 42.8133 184.851C42.8388 185.052 42.7939 185.254 42.6861 185.425C42.4509 185.845 42.4187 186.369 43.1313 186.842C43.2327 186.907 43.32 186.992 43.3881 187.092C43.4561 187.191 43.5035 187.303 43.5275 187.422C43.7137 188.393 44.7077 190.726 50.0234 188.176L49.6174 184.221Z" fill="#5B6475"/>
<path fill-rule="evenodd" clip-rule="evenodd" d="M55.7633 179.401C54.7175 178.953 52.5013 178.497 50.7779 181.511C50.6581 181.721 50.4828 181.895 50.2711 182.012C49.2449 182.572 46.2727 184.636 48.9789 188.35C49.1032 188.52 49.1839 188.717 49.2141 188.925C49.3051 189.554 49.6047 190.948 50.5049 191.293C50.7735 191.395 51.0002 191.584 51.1489 191.83C51.7537 192.826 53.4785 194.921 56.3807 192.733C56.529 192.622 56.6994 192.543 56.8805 192.502L60.8887 191.62C61.1018 191.573 61.3234 191.581 61.5327 191.643C62.0227 191.783 63.0125 191.911 63.3807 190.759C63.4558 190.525 63.595 190.316 63.7825 190.156C64.4545 189.585 65.8825 188.035 64.8017 185.863C64.6805 185.621 64.6375 185.346 64.6785 185.078C64.8059 184.265 64.8717 182.459 63.1833 181.68C62.9288 181.565 62.72 181.368 62.5897 181.12C62.0297 180.037 60.1915 177.26 56.9589 179.3C56.7827 179.413 56.5818 179.481 56.3736 179.498C56.1653 179.516 55.9559 179.482 55.7633 179.401Z" fill="#5B6475"/>
<path fill-rule="evenodd" clip-rule="evenodd" d="M61.2076 243.097L60.6238 243.772L61.0242 245.235C61.0757 245.423 61.1793 245.592 61.3229 245.724C61.4666 245.856 61.6445 245.944 61.8362 245.979C63.1382 246.217 66.0921 246.648 67.6125 245.995C67.6125 245.995 68.0843 242.828 62.8526 243.772L61.2076 243.097Z" fill="#A8B2BC"/>
<path fill-rule="evenodd" clip-rule="evenodd" d="M52.0744 244.78L51.765 245.541L51.891 248.287C51.9071 248.482 51.9904 248.666 52.1266 248.807C52.2629 248.948 52.4438 249.038 52.6386 249.061C53.362 249.18 54.0963 249.219 54.8282 249.177C55.4414 249.131 55.825 248.554 55.5856 248.04L54.6616 246.059C54.5931 245.913 54.4958 245.781 54.3755 245.673C54.2553 245.565 54.1145 245.482 53.9616 245.429L52.0744 244.78Z" fill="#A8B2BC"/>
<path fill-rule="evenodd" clip-rule="evenodd" d="M54.7325 191.267L54.1375 197.174C54.1375 197.174 57.3477 198.262 59.4575 197.034L58.8863 191.104L54.7325 191.267Z" fill="#FFD89D"/>
<path fill-rule="evenodd" clip-rule="evenodd" d="M49.5835 223.601C49.5835 223.601 51.1081 240.59 52.1147 245.788C52.1147 245.788 52.8665 246.336 53.9935 245.628L55.3613 222.961L49.5835 223.601Z" fill="#FFD89D"/>
<path fill-rule="evenodd" clip-rule="evenodd" d="M56.3553 224.621L60.5301 243.646C60.5301 243.646 61.6656 244.823 63.1426 243.646L62.423 223.647L56.3553 224.621Z" fill="#FFD89D"/>
<path fill-rule="evenodd" clip-rule="evenodd" d="M51.0672 197.621L50.0228 197.737C48.0012 199.905 44.2912 214.804 42.9528 217.972L37.5081 217.083C37.4599 217.074 37.4099 217.077 37.3635 217.094C37.3171 217.11 37.276 217.139 37.2446 217.177C37.2133 217.215 37.1929 217.26 37.1855 217.309C37.1782 217.358 37.1842 217.407 37.2029 217.453C37.4451 218.044 38.3523 219.749 41.886 219.749C43.5366 219.749 40.9591 221.03 41.9475 221.47C41.9475 221.47 44.1162 220.688 44.1204 219.314C44.1204 219.314 50.3406 205.147 51.6188 203.655C52.897 202.162 51.0672 197.621 51.0672 197.621Z" fill="#FFD89D"/>
<path fill-rule="evenodd" clip-rule="evenodd" d="M50.0302 197.735C50.0302 197.735 55.563 195.684 62.4705 197.807C62.4705 197.807 63.2447 203.036 62.8457 205.525L50.9458 205.956L50.0302 197.735Z" fill="#2187FF"/>
<path fill-rule="evenodd" clip-rule="evenodd" d="M62.6878 207.159C62.6878 207.159 66.4916 219.37 67.0558 227.507C67.0697 227.707 67.0039 227.904 66.8727 228.056C66.7415 228.207 66.5557 228.301 66.3558 228.316C65.5648 228.372 64.1676 228.568 62.272 229.199C59.192 230.223 56.6496 229.885 54.3508 229.224C52.5462 228.706 48.034 228.254 46.1762 228.082C46.0717 228.073 45.9702 228.041 45.8783 227.991C45.7864 227.94 45.7061 227.871 45.6425 227.787C45.5789 227.704 45.5334 227.608 45.5089 227.506C45.4843 227.404 45.4813 227.298 45.5 227.194C46.039 224.184 48.0914 213.499 51.205 206.238L62.6878 207.159Z" fill="#2187FF"/>
<path fill-rule="evenodd" clip-rule="evenodd" d="M62.8848 205.244L62.6832 207.159C62.6832 207.159 59.0236 207.173 50.9372 206.901L50.8952 205.515C50.8952 205.515 59.8524 205.69 62.8848 205.244Z" fill="#015FCD"/>
<path fill-rule="evenodd" clip-rule="evenodd" d="M62.8586 185.543C63.777 189.093 63.5096 193.174 59.332 194.083C56.441 194.715 53.403 191.771 52.4846 188.22C51.5662 184.668 53.1384 181.964 56.0042 181.22C58.87 180.475 61.9402 181.991 62.8586 185.543Z" fill="#FFD89D"/>
<path fill-rule="evenodd" clip-rule="evenodd" d="M62.5478 186.638C62.5478 186.638 62.6878 184.49 63.7547 185.152C64.8215 185.814 63.3416 188.389 62.6794 188.539C62.0171 188.689 62.5478 186.638 62.5478 186.638Z" fill="#FFD89D"/>
<path fill-rule="evenodd" clip-rule="evenodd" d="M53.3832 189.114C53.3832 189.114 53.0626 187.476 51.9021 188.234C50.7415 188.991 52.9562 191.666 54.3198 191.072L53.3832 189.114Z" fill="#FFD89D"/>
<path d="M74.5416 188.866C74.746 188.369 75.3327 187.019 75.5959 186.744C75.7849 186.545 75.8759 186.363 75.8619 186.184C75.8538 186.104 75.8285 186.026 75.7877 185.957C75.7468 185.887 75.6914 185.827 75.6253 185.781L75.5511 185.719L74.1006 186.495L73.5224 187.401L73.766 187.556L74.3036 186.716L75.5105 186.071C75.5476 186.108 75.57 186.158 75.5735 186.211C75.5572 186.344 75.4906 186.466 75.3873 186.552C75.0386 186.915 74.3526 188.577 74.2672 188.764L74.5416 188.866Z" fill="#FFD89D"/>
<path fill-rule="evenodd" clip-rule="evenodd" d="M51.6654 187.812C51.6654 187.812 54.9876 191.409 56.7138 183.945C56.7138 183.945 58.4358 186.174 59.2212 184.203C59.2212 184.203 62.6512 185.378 63.0292 183.936C63.4072 182.494 58.3938 178.582 54.3618 181.389C50.3298 184.196 51.6654 187.812 51.6654 187.812Z" fill="#5B6475"/>
<defs>
<linearGradient id="paint0_linear_18_5773" x1="185.065" y1="260.556" x2="195.267" y2="164.202" gradientUnits="userSpaceOnUse">
<stop stop-color="#5C5E61"/>
<stop offset="1" stop-color="#5C5E61"/>
</linearGradient>
<linearGradient id="paint1_linear_18_5773" x1="-20410.2" y1="15641.7" x2="-18650.2" y2="14307.3" gradientUnits="userSpaceOnUse">
<stop stop-color="white"/>
<stop offset="1" stop-color="#EFEFF4"/>
</linearGradient>
<linearGradient id="paint2_linear_18_5773" x1="-20363.5" y1="12432.8" x2="-18936.4" y2="11037.3" gradientUnits="userSpaceOnUse">
<stop stop-color="white"/>
<stop offset="1" stop-color="#EFEFF4"/>
</linearGradient>
</defs>
</svg>
