<svg width="24" height="24" viewBox="0 0 24 24" fill="none" xmlns="http://www.w3.org/2000/svg">
<path fill-rule="evenodd" clip-rule="evenodd" d="M12 12C13.1046 12 14 11.1046 14 10C14 8.89543 13.1046 8 12 8C10.8954 8 10 8.89543 10 10C10 11.1046 10.8954 12 12 12ZM12 13.5C13.933 13.5 15.5 11.933 15.5 10C15.5 8.067 13.933 6.5 12 6.5C10.067 6.5 8.5 8.067 8.5 10C8.5 11.933 10.067 13.5 12 13.5Z" fill="#000B26" fill-opacity="0.72"/>
<path fill-rule="evenodd" clip-rule="evenodd" d="M16.1185 16.1287C17.4819 14.3107 18.5 12.159 18.5 9.80488C18.5 6.35749 15.625 3.5 12 3.5C8.37502 3.5 5.5 6.35749 5.5 9.80488C5.5 12.159 6.51813 14.3107 7.88146 16.1287C9.24149 17.9424 10.8671 19.3181 11.8832 20.0846C11.9274 20.118 11.9675 20.1275 12 20.1275C12.0325 20.1275 12.0726 20.118 12.1168 20.0846C13.1329 19.3181 14.7585 17.9424 16.1185 16.1287ZM13.0201 21.2821C15.1763 19.6555 20 15.392 20 9.80488C20 5.49436 16.4183 2 12 2C7.58172 2 4 5.49436 4 9.80488C4 15.392 8.82374 19.6555 10.9799 21.2821C11.5904 21.7427 12.4096 21.7427 13.0201 21.2821Z" fill="#000B26" fill-opacity="0.72"/>
</svg>
